<?xml version="1.0" encoding="UTF-8"?><svg id="Layer_1" xmlns="http://www.w3.org/2000/svg" viewBox="0 0 800 505.94"><path id="m" d="m84.39,166.85v-37.66l-36.01-11.51c-4.29,1.99-7.86,4.97-10.72,8.67l-19.72,26.86c-5.14,6.96-5.29,16.34-.29,23.59l9.43,13.64c4.43,6.54,13.57,8.1,19.86,3.41l37.29-27h.14Z" style="fill:#21ad77;"/><path id="n" d="m146.55,245.86l52.15-30.41-23.86-48.89-43.58-41.78c-6.72-6.4-15.57-9.95-25-9.95h-45.44c-4.29,0-8.57.99-12.43,2.98l36.01,49.17,52.15,71.34c2.57,3.41,6,6.11,9.86,7.67h0l.14-.14Z" style="fill:#21ad77;"/><path id="o" d="m738.38,273.43l-17.86,45.19,17.86,44.91,44.01-43.77c5.29-5.26,4.43-14.07-1.71-18.19l-42.15-28.14h-.14Z" style="fill:#21ad77;"/><path id="p" d="m738.38,273.43l-17.86,45.19,17.86,44.91,20-19.9v-56.85l-20-13.36Z" style="fill:#198259;"/><path id="q" d="m734.67,196.69l-126.74,68.78-60.15,100.48,66.58,113.41c4.57,7.67,12.86,12.51,21.86,12.51h87.73c8,0,14.43-6.54,14.43-14.5V207.63c-.14-3.98-1.43-7.82-3.71-11.09h0v.14Z" style="fill:#21ad77;"/><path id="r" d="m521.62,113.27l-208.9,136.58v227.39c0,7.96,6.43,14.5,14.43,14.5h67.01c9.29,0,18.29-3.41,25.29-9.66l128.17-116.11,186.89-169.26c-2.29-3.84-5.72-6.68-9.86-8.38l-203.18-75.04h.14Z" style="fill:#fb4994;"/><path id="s" d="m498.33,18.19l-146.03,84.56-63.87,123.93,24.86,23.02,61.01,56.28c6.29,5.83,15.57,7.11,23.29,3.41l135.31-66.08c7.57-3.7,11.72-11.94,10.14-20.18l-21.43-109.86-16.43-84.84c-1-4.12-3.43-7.67-6.86-10.09h0v-.14Z" style="fill:#21ad77;"/><path id="t" d="m243.71,14.21c-8.72,0-16.43,5.4-19.29,13.64l-49.44,138.71-28.29,79.44c4,1.71,8.57,2.27,12.86,1.56l128.74-20.75h0L498.33,18.33c-3-2.42-6.57-3.84-10.43-3.98h-244.19v-.14Z" style="fill:#fb4994;"/><path id="u" d="m48.53,117.67l17.29,62.67,18.72-13.5-36.01-49.17Z" style="fill:#198259;"/><path id="v" d="m146.55,245.86l28.29-79.44-22.86-21.89-5.43,101.33h0Z" style="fill:#198259;"/><path id="w" d="m734.67,196.69l-153.6,225.97-33.29-56.7,186.89-169.26Z" style="fill:#198259;"/><path d="m729.66,174.95l-195.61-72.2-15-77.03c-2.86-14.92-16-25.72-31.29-25.72h-244.05c-14.72,0-27.86,9.24-32.86,23.02l-42.01,117.82-27.58-26.43c-9.43-8.95-21.72-13.93-34.86-13.93h-45.58c-13.57,0-26.58,6.54-34.58,17.48l-19.58,26.86c-8.72,11.8-8.86,27.86-.57,39.94l9.43,13.64c4.29,6.25,10.72,10.37,18.15,11.8s15-.14,21.86-4.97l25.72-18.62,43.87,59.83c8.43,11.51,22.43,17.34,36.72,15.06l121.88-19.61,14.86,13.64v221.7c0,15.78,12.86,28.71,28.72,28.71h67.01c12.86,0,25.29-4.69,34.86-13.36l115.17-104.31,57.73,98.2c7.14,12.08,20.15,19.47,34.15,19.47h87.73c15.86,0,28.72-12.79,28.72-28.71v-107.87l39.72-39.65c10.14-10.09,10.14-26.72,0-36.81-1.29-1.28-2.57-2.42-4-3.27l-35.86-23.88v-58.13c0-14.5-9.14-27.71-22.86-32.83v.14Zm-406.79,64.38l-14-12.93L493.48,43.2l14.15,72.76h0l22,113.27-142.31,69.5-64.3-59.26-.14-.14ZM237.71,32.54c.86-2.42,3.29-4.12,5.86-4.12h224.19l-186.32,185.04-114.74,18.48L237.71,32.54h0ZM38.96,182.34l-9.43-13.64c-1.43-2.13-1.43-4.97,0-7.11l16.57-22.74,18.15,24.87-25.43,18.62h.14Zm35.44-53.44h32.01c5.57,0,11,2.13,15,5.97l37.01,35.39-17.57,49.31-66.3-90.67h-.14Zm335.35,342.5c-4.29,3.84-9.86,5.97-15.57,5.97l-67.16-.28v-195.27l48.01,44.2c4.43,4.12,10.86,4.83,16,2.27l161.03-78.59c5.86-2.84,9-9.1,7.72-15.49l-19.29-99.06,170.89,63.1-301.63,273.01v.14Zm314.06,5.97h-87.73c-3.86,0-7.57-2.13-9.43-5.4l-60.73-103.46,158.17-143.25v252.12h-.29Zm46.15-165.71l-17.57,17.48v-29.13l17.57,11.65Z"/></svg>