<?xml version="1.0" encoding="UTF-8"?><svg id="Layer_1" xmlns="http://www.w3.org/2000/svg" viewBox="0 0 512 512"><rect x="0" y="0" width="512" height="512" rx="256" ry="256" style="fill:#f4ede1;"/><path d="m66.29,397.34c-1.14,0-2.25-.36-3.31-1.07-1.95-1.26-2.43-2.79-2.48-3.85-.05-1.08.28-2.46,1.06-4.49,2.46-6.13,7.76-18.56,15.75-36.98,17.46-40.91,29.37-69.56,35.39-85.15,6-15.55,12.04-33.46,17.95-53.26,2.62-8.81,4.24-14.5,5.24-18.18-.48.13-.98.2-1.48.2-.38,0-.77-.04-1.16-.12-1.29-.26-4.3-1.4-4.3-6.21,0-.94.27-2.34,2.19-6.24,1.32-2.68,2.94-5.5,4.8-8.39,4.31-7.17,7.47-13.39,9.36-18.43,2.76-7.02,5.2-10,8.18-10,3.24,0,4.84,1.46,5.6,2.68.93,1.47,1.9,3-8.88,41.75-6.98,25.06-13.69,46.87-19.95,64.84-4.95,14.17-11.43,30.65-19.26,48.99-14.44,34.29-21.78,51.87-25.31,60.41,1.26-.92,2.55-1.91,3.86-2.94,8.91-6.67,21.94-13.39,38.79-20.03,16.78-6.61,30.68-10.99,41.33-13.02,5.54-1.07,11.57-2.04,17.92-2.89,6.26-.84,11.8-1.52,16.48-2.03,5.59-.61,6.79-.77,7.04-.81h.03c.56-.12,1.1-.18,1.61-.18,2.26,0,3.57,1.09,4.26,2,1.22,1.61,1.45,3.59.66,5.58-.71,1.8-2.1,3.19-4.02,4.01-.74.31-2.21.69-10.59,1.46-5.7.52-13.97,1.78-24.57,3.73-10.57,1.95-21.75,4.76-33.2,8.35-13.73,4.31-26.44,10-37.79,16.92-11.32,6.9-21.13,14.81-29.15,23.51-5.8,6.4-7.7,8.02-8.63,8.67-1.08.77-2.23,1.15-3.42,1.15Z"/><path d="m153.46,147.69c1.69,0,2.85.5,3.48,1.51.88,1.38-2.18,14.63-9.17,39.75-6.99,25.12-13.63,46.68-19.9,64.69-4.96,14.18-11.35,30.45-19.19,48.83-18.88,44.85-28.32,67.49-28.32,67.93,0,.02.01.03.04.03.13,0,.59-.26,1.37-.78.94-.63,2.27-1.55,4-2.78,1.72-1.22,3.5-2.56,5.32-4,8.72-6.52,21.44-13.08,38.15-19.66,16.72-6.59,30.34-10.88,40.88-12.89,5.52-1.07,11.45-2.02,17.78-2.87,6.33-.85,11.81-1.52,16.42-2.02,4.61-.5,7.04-.78,7.29-.85.4-.08.77-.12,1.12-.12,1,0,1.76.34,2.27,1.01.69.91.8,1.96.33,3.15-.47,1.19-1.36,2.07-2.68,2.63-.75.32-4.03.74-9.83,1.27-5.8.53-14.07,1.79-24.79,3.76s-21.89,4.78-33.5,8.42c-13.99,4.39-26.77,10.11-38.34,17.17-11.57,7.06-21.47,15.04-29.69,23.95-4.2,4.64-6.95,7.42-8.23,8.33-.65.46-1.31.69-1.98.69s-1.28-.22-1.93-.65c-.88-.57-1.33-1.19-1.36-1.88-.03-.69.27-1.85.89-3.48,2.45-6.08,7.68-18.38,15.71-36.88,17.56-41.15,29.37-69.56,35.42-85.24,6.05-15.68,12.06-33.5,18.02-53.44,4.89-16.43,7.18-24.96,6.87-25.59-.02-.05-.06-.08-.1-.08-.23,0-.76.62-1.59,1.87-.06.06-.13.13-.19.19-1.13,1.61-2.34,2.42-3.63,2.42-.22,0-.43-.02-.65-.07-1.54-.31-2.31-1.57-2.31-3.76,0-.81.64-2.52,1.93-5.13,1.28-2.6,2.84-5.32,4.66-8.14,4.45-7.4,7.65-13.71,9.6-18.91,2.2-5.58,4.14-8.37,5.83-8.37m0-5c-5.23,0-8.13,5.55-10.49,11.54l-.02.04-.02.04c-1.82,4.88-4.9,10.94-9.16,18.02-1.89,2.94-3.54,5.82-4.9,8.57-2.03,4.11-2.45,5.91-2.45,7.34,0,6.64,4.54,8.26,6.16,8.63-.99,3.52-2.38,8.35-4.35,14.97-5.9,19.73-11.92,37.59-17.89,53.07-6.01,15.56-17.91,44.19-35.36,85.08-7.99,18.41-13.29,30.86-15.75,36.98v.03s-.03.03-.03.03c-.92,2.4-1.29,4.05-1.22,5.51.06,1.34.61,3.88,3.62,5.83,1.47.97,3.04,1.46,4.67,1.46s3.37-.56,4.86-1.61c1.11-.79,3.14-2.53,9.06-9.06,7.83-8.49,17.46-16.25,28.58-23.03,11.18-6.81,23.7-12.42,37.23-16.67,11.36-3.56,22.43-6.35,32.9-8.27,10.52-1.94,18.71-3.18,24.34-3.7,8.77-.81,10.26-1.2,11.31-1.64,2.58-1.11,4.44-2.97,5.4-5.41,1.1-2.8.74-5.72-.99-8.01-1.47-1.93-3.69-2.99-6.25-2.99-.66,0-1.36.07-2.07.21-.28.04-1.52.2-6.88.78-4.69.51-10.25,1.2-16.54,2.04-6.4.85-12.47,1.84-18.07,2.92-10.79,2.06-24.85,6.48-41.77,13.15-15.06,5.93-27.13,11.95-35.97,17.93,4.22-10.13,11.04-26.4,21.85-52.08,7.84-18.37,14.33-34.9,19.31-49.12,6.28-18.02,13.01-39.89,20-64.99,3.5-12.57,6.06-22.33,7.59-29,2.38-10.33,2.34-12.64.98-14.78-.88-1.41-3.08-3.82-7.7-3.82h0Z"/><path d="m254.87,375.97c-1.73,0-3.24-.6-4.38-1.74-2.39-2.38-1.77-6.89,2.04-15.06,3.15-6.75,9.87-18.79,19.97-35.78,5.6-9.29,9.83-18.06,12.58-26.07,2.75-8,4.67-16.93,5.71-26.55,1.03-10.01.62-19.12-1.22-27.06-1.84-7.93-5.48-16.16-10.82-24.48-4.04-6.27-8.67-10.63-13.76-12.96-4.82-2.2-11.7-3.32-20.46-3.32-.66,0-1.34,0-2.02.02-1.2.04-2.35.06-3.42.06-7.2,0-10.5-.83-11.76-2.98-1.69-2.64-1.12-5.45,1.56-7.25,1.89-1.27,5-2.16,9.51-2.71,4.76-.66,15.2-3.51,30.98-8.46,17.2-5.38,36.93-10.99,58.64-16.69,15.95-4.22,25.43-6.89,28.16-7.92,3.93-1.44,6.58-3.22,7.9-5.3.48-.73,1.62-3.02,4.07-10.37l.38-1.13c.95-2.93,1.84-4.98,2.7-6.25,1.37-2.03,2.98-2.46,4.08-2.46.3,0,.61.03.91.1,1.66.3,4.58,1.63,4.71,7.09.07,3.18-.79,6.83-2.56,10.85-.52,1.13-.88,1.97-1.13,2.6.83-.05,1.86-.19,3.1-.42,1.76-.25,6.62-1.22,14.51-2.9,10.69-2.15,22.24-3.61,34.33-4.33,4.42-.27,8.46-.4,11.98-.4,6.33,0,11.15.41,14.71,1.26,6.31,1.46,11.83,4.17,16.38,8.06,2.97,2.47,4.41,4.58,4.53,6.62.07,1.25-.36,2.39-1.24,3.31-.6.61-1.32,1.05-2.16,1.37-.4.16-.89.24-1.42.24-1.32,0-3.7-.47-10.44-4.16-3.57-1.99-6.44-3.16-8.55-3.49-1.93-.3-6.42-.45-13.35-.45-1.17,0-2.4,0-3.7.01-7.29,0-13.58.26-18.72.79-5.12.52-11.47,1.57-18.89,3.11-1.59.32-3.75.76-6.5,1.32-14.02,2.77-18.24,4.8-19.51,5.76-1.26.95-4.24,4.37-10.07,16.58-1.2,2.39-2.1,4.26-2.71,5.6-12.1,24.95-31.24,60.83-56.92,106.7-5.56,10.02-9.44,17.79-11.52,23.12-2.51,6.85-6.99,16.54-13.28,28.74-6.44,12.49-10.73,19.79-13.11,22.31-2.17,2.31-4.54,3.87-7.02,4.63-1,.3-1.95.46-2.82.46Zm14.93-181.34c3.08,1.11,6.65,3.7,10.89,7.87,4.56,4.5,8.3,9.29,11.1,14.24,4.6,8.18,7.74,15.41,9.32,21.49,1.58,6.07,2.39,13.98,2.39,23.49,0,3.33,0,5.75.02,7.51,2.03-3.51,5.93-10.56,13.25-24.21,1-1.93,1.99-3.79,2.94-5.49,10.04-18.52,18.81-35.27,26.06-49.77,5.31-10.61,7.8-16.02,8.95-18.77-4.94.88-16.77,3.73-43.58,11.24-25.15,7.05-36.36,10.61-41.33,12.4Z"/><path d="m375.31,134c.13,0,.26.01.39.04,1.75.32,2.66,1.88,2.73,4.7.06,2.82-.72,6.08-2.35,9.79-1.38,3.01-2.01,4.77-1.88,5.27.14.57.92.86,2.33.86,1.06,0,2.48-.16,4.25-.48,1.76-.25,6.62-1.22,14.58-2.92,10.6-2.13,21.92-3.56,33.97-4.28,4.4-.26,8.34-.39,11.83-.39,6.08,0,10.79.4,14.13,1.19,5.96,1.38,11.07,3.89,15.34,7.53,3.39,2.82,4.42,4.93,3.11,6.3-.31.32-.72.57-1.22.75-.15.06-.33.09-.55.09-1.46,0-4.54-1.28-9.24-3.85-3.83-2.13-6.95-3.39-9.36-3.76-2.07-.32-6.66-.48-13.75-.48-1.17,0-2.4,0-3.71.01-7.4,0-13.72.27-18.96.8-5.24.53-11.62,1.59-19.15,3.15-1.57.32-3.73.75-6.49,1.32-11.1,2.2-17.94,4.27-20.51,6.21-2.57,1.95-6.18,7.78-10.82,17.5-1.19,2.38-2.1,4.27-2.73,5.64-12.11,24.97-31.05,60.47-56.83,106.51-5.65,10.16-9.54,17.97-11.67,23.43-2.51,6.84-6.9,16.34-13.17,28.51-6.27,12.17-10.51,19.41-12.7,21.73-1.88,2.01-3.86,3.32-5.93,3.95-.77.23-1.46.35-2.09.35-1.07,0-1.94-.34-2.61-1.01-1.44-1.44-.6-5.52,2.54-12.23,3.14-6.71,9.75-18.57,19.85-35.56,5.71-9.47,9.97-18.32,12.8-26.53,2.82-8.22,4.77-17.25,5.83-27.1,1.07-10.35.64-19.65-1.27-27.9-1.91-8.25-5.63-16.67-11.15-25.26-4.33-6.71-9.27-11.34-14.82-13.88-5.17-2.37-12.33-3.55-21.5-3.55-.68,0-1.37,0-2.07.02-1.21.04-2.33.06-3.37.06-5.72,0-8.92-.58-9.61-1.75-1-1.57-.74-2.87.8-3.9,1.54-1.03,4.34-1.8,8.42-2.31,4.95-.69,15.43-3.54,31.43-8.56,17.25-5.39,36.76-10.95,58.52-16.65,16.12-4.26,25.59-6.93,28.41-8,4.45-1.63,7.5-3.73,9.13-6.3.94-1.44,2.38-5.08,4.33-10.91.12-.38.25-.75.38-1.13.88-2.7,1.68-4.58,2.4-5.65.61-.91,1.28-1.36,2.01-1.36m-73.42,141.23c.45,0,1.06-.52,1.83-1.56,1.38-1.94,6.46-11.1,15.24-27.47,1-1.94,1.98-3.76,2.92-5.46,10.1-18.63,18.8-35.25,26.11-49.87,7.31-14.61,10.68-22.14,10.11-22.58-.1-.09-.34-.14-.73-.14-3.54,0-19.19,3.89-46.93,11.66-30.77,8.63-46.15,13.53-46.15,14.72,0,.88,1.25,1.6,3.76,2.16,2.82.69,6.45,3.22,10.87,7.57,4.42,4.36,7.98,8.92,10.68,13.69,4.52,8.03,7.54,14.99,9.08,20.89,1.54,5.9,2.3,13.52,2.3,22.86,0,7.65.03,11.76.1,12.33.15.79.41,1.18.8,1.18m73.42-146.23c-1.4,0-4.06.46-6.15,3.56-1.01,1.49-1.96,3.68-3.01,6.9-.11.34-.24.72-.37,1.11-2.51,7.54-3.52,9.37-3.77,9.75l-.02.03-.02.03c-1.01,1.59-3.3,3.07-6.62,4.29h-.02s-.02.02-.02.02c-1.82.69-8.14,2.61-27.93,7.84-21.73,5.7-41.5,11.32-58.74,16.72-15.62,4.9-25.91,7.72-30.59,8.38-4.96.61-8.32,1.61-10.56,3.11-3.78,2.55-4.69,6.84-2.26,10.69,2.1,3.42,6.87,4.12,13.86,4.12,1.08,0,2.26-.02,3.5-.06.66-.01,1.31-.02,1.95-.02,8.4,0,14.93,1.04,19.41,3.09,4.64,2.12,8.92,6.18,12.7,12.04,5.18,8.06,8.71,16.03,10.48,23.68,1.78,7.67,2.17,16.5,1.17,26.26-1.02,9.41-2.9,18.16-5.59,25.99-2.69,7.84-6.85,16.45-12.35,25.58-10.3,17.33-16.87,29.11-20.1,36.03-3.21,6.88-5.63,13.8-1.55,17.88,1.62,1.62,3.74,2.47,6.15,2.47,1.12,0,2.31-.19,3.54-.56,2.91-.88,5.65-2.67,8.13-5.32,1.75-1.85,4.87-6.13,13.5-22.86,6.32-12.27,10.83-22.04,13.4-29.03,2.04-5.22,5.87-12.88,11.36-22.77,25.7-45.9,44.87-81.82,56.96-106.76l.03-.06.03-.06c.6-1.32,1.49-3.16,2.65-5.48l.02-.04.02-.04c5.97-12.51,8.65-15.16,9.32-15.67.69-.52,4.06-2.44,18.47-5.29,2.78-.57,4.94-1.01,6.51-1.32,7.37-1.53,13.64-2.57,18.67-3.08,5.05-.51,11.26-.77,18.45-.77,1.33,0,2.55-.01,3.71-.01,8.92,0,11.96.27,12.98.42,1.25.19,3.6.91,7.7,3.19,7.21,3.94,9.87,4.48,11.67,4.48.83,0,1.61-.14,2.32-.41,1.17-.44,2.17-1.08,2.99-1.9l.04-.04.04-.04c1.35-1.41,2.03-3.26,1.92-5.18-.21-3.63-3.19-6.53-5.42-8.39-4.86-4.14-10.72-7.02-17.43-8.58-3.73-.89-8.73-1.32-15.26-1.32-3.58,0-7.66.14-12.13.4-12.22.73-23.88,2.2-34.65,4.37h-.03s-.03.01-.03.01c-6.4,1.36-10.77,2.25-13.04,2.66,1.51-3.8,2.21-7.21,2.14-10.39-.04-1.95-.66-8.36-6.77-9.5-.44-.09-.89-.13-1.34-.13h0Zm-99.33,66.17c6.34-2.05,17.2-5.32,35.82-10.54,21.05-5.9,32.45-8.8,38.63-10.21-1.44,3.11-3.62,7.63-6.91,14.21-7.23,14.47-15.99,31.19-26.02,49.7-.96,1.72-1.95,3.59-2.96,5.53-3.67,6.84-6.45,11.97-8.56,15.81-.11-8.83-.93-16.25-2.45-22.08-1.64-6.29-4.86-13.72-9.56-22.08-2.92-5.16-6.8-10.14-11.53-14.8-2.34-2.3-4.47-4.14-6.46-5.55h0Z"/></svg>