<?xml version="1.0" encoding="UTF-8"?><svg id="Layer_1" xmlns="http://www.w3.org/2000/svg" viewBox="0 0 700 700"><polygon points="350 0 69.32 138.64 0 450.17 194.24 700 505.76 700 700 450.17 630.68 138.64 350 0" style="fill:#343d3c;"/><circle cx="558.12" cy="368.82" r="55.32" style="fill:#d7a03a;"/><polygon points="86.56 295.05 86.56 442.58 234.09 368.82 86.56 295.05" style="fill:#d7a03a;"/><polygon points="350 387.26 576.56 500.54 350 613.82 123.44 500.54 350 387.26" style="fill:#ab6336; opacity:.35;"/><path d="m350,405.7l189.68,94.84-189.68,94.84-189.68-94.84,189.68-94.84Zm0-36.88L86.56,500.54l263.44,131.72,263.44-131.72-263.44-131.72Z" style="fill:#ab6336;"/><polygon points="350 123.82 576.56 237.1 350 350.38 123.44 237.1 350 123.82" style="fill:#268184; opacity:.35;"/><path d="m350,142.26l189.68,94.84-189.68,94.84-189.68-94.84,189.68-94.84Zm0-36.88L86.56,237.1l263.44,131.72,263.44-131.72L350,105.38Z" style="fill:#268184;"/></svg>