<?xml version="1.0" encoding="UTF-8"?><svg id="Wheel_-bkgd" xmlns="http://www.w3.org/2000/svg" xmlns:xlink="http://www.w3.org/1999/xlink" viewBox="0 0 1000 1000"><defs><radialGradient id="radial-gradient" cx="500" cy="500" fx="500" fy="500" r="500" gradientUnits="userSpaceOnUse"><stop offset=".62" stop-color="#ffdf99"/><stop offset=".72" stop-color="#ffde96"/><stop offset=".78" stop-color="#ffdb8e"/><stop offset=".83" stop-color="#ffd77f"/><stop offset=".88" stop-color="#ffd16b"/><stop offset=".92" stop-color="#ffc851"/><stop offset=".96" stop-color="#ffbf30"/><stop offset=".99" stop-color="#ffb30b"/><stop offset="1" stop-color="#ffb000"/></radialGradient></defs><circle cx="500" cy="500" r="500" style="fill:url(#radial-gradient);"/><path d="m583.06,631.05l260.66,31.33,6.28-74.14-151.72-19.59s-24.63-2.22-24.4-6.36c.25-4.5,10.47-8.9,10.47-8.9l138.69-52.7-22.75-57.92-116.24,43.14s-21.14,11.27-24.13,5.26c-2.6-5.22,12.66-17.08,12.66-17.08l155.29-155.42-53.44-52.75-128.95,130.3s-26.55,31.73-29.55,23.93c-2.35-6.11,20.66-56.99,20.66-56.99l80.95-213.08-65.85-25.86-87.61,238.2s-5.01,9.1-12.1,8.72c-12.83-.68-34.45-50.39-34.45-50.39l-67.85-142.76-66.19,29.65,64.98,130.57s1.9,7.84.52,9.65c-1.35,1.77-9.2.75-9.2.75l-204.54-71.69-24.13,70.67,155.3,53.29s8.8,4.17,11.56,9.92c3.75,7.8,2.75,20.93-3.91,28.15-4.02,4.37-24.45,2.78-24.45,2.78l-190.98-23.94-8.64,69.97,172.53,19.21s3.04.47,4.07,3.57c1.15,3.46-4.5,12.2-4.5,12.2l-121.75,251.27,65.58,31.06,85.37-180.54s11.78-26.64,18.28-25.04c7.93,1.95,13.74,69.34,13.74,69.34l20.97,176.48,73.16-8.78-21.19-163.78s-1.42-6.05,5.86-5.89c7.96.17,23.39,18.22,23.39,18.22l198.26,190.65,50.68-54.12-161.21-166.95s-7.92-7.73-7.08-11.44c3.29-14.56,16.91-12.21,16.91-12.21Zm-79.94-62.92c-31.64,0-57.29-25.65-57.29-57.29s25.65-57.29,57.29-57.29,57.29,25.65,57.29,57.29-25.65,57.29-57.29,57.29Z" style="fill:#3c844f;"/></svg>