<?xml version="1.0" encoding="UTF-8"?><svg id="Layer_1" xmlns="http://www.w3.org/2000/svg" xmlns:xlink="http://www.w3.org/1999/xlink" viewBox="0 0 700 582.95"><defs><linearGradient id="linear-gradient" x1="350" y1="27.27" x2="350" y2="577.09" gradientUnits="userSpaceOnUse"><stop offset="0" stop-color="#60be77"/><stop offset=".22" stop-color="#5db977"/><stop offset=".45" stop-color="#54ad78"/><stop offset=".68" stop-color="#46987b"/><stop offset=".91" stop-color="#327b7e"/><stop offset="1" stop-color="#2a6f80"/></linearGradient></defs><path d="m554.5,186.63c-2.53,0-4.85-.5-6.7-1.46-3.59-1.91-8.36-7.87-8.5-11.5-.66-1.26-7.05-8.49-17.35-18.78l-17.05-17.05-8.29,8.29-9.26,9.14-31.17,1.65v-31.54l18.12-18.13-15.03-15.03c-11.25-11.36-16.48-15.86-19.31-16.59-6.08-1.67-10.45-6.93-11.13-13.4-.67-6.37,2.31-12.09,7.78-14.93,2.22-1.12,4.62-1.69,7.13-1.69,8.57,0,15.54,6.34,15.54,14.13,0,2.2,3.8,6.54,19.36,22.1l18.96,18.96,30.19-30.19c20.73-20.73,30.59-30.97,30.59-33.11,0-11.31,8.53-24.19,19.85-29.96,5.21-2.56,7.49-3.35,11.63-3.35.81,0,1.74.03,2.92.09,5.99.34,7.85,1.01,11.06,3.97,4.27,4.04,6.33,10.69,5.24,16.95-2.69,14.97-18.33,29.11-32.19,29.11-2.61,0-7.7,4.63-34,30.93l-30.41,30.41,19.74,19.63c17.99,17.88,20.74,20.21,24.49,20.72,5.97.98,12.12,7.12,13.19,13.16.98,5.14-1.89,12.11-6.15,14.92-2.47,1.6-5.83,2.52-9.23,2.52h0Zm-82.36-46.13h0Zm2.83-15.17c-.66,1.97-2.47,11.4-2.79,14.37,1.34-.13,3.94-.47,7.07-.96l.92-.15c3.54-.58,5.32-.88,6.23-1.92.96-1.1,1.36-3.47,2.09-7.77l.16-.92c.55-2.99.8-4.74.89-5.65-3.1.41-12.68,2.42-14.57,2.99Z" style="fill:#231f20;"/><path d="m589.85,5.19c.85,0,1.79.03,2.87.09,5.95.34,7.52,1.01,10.45,3.71,4.04,3.82,5.95,10.22,4.94,16.06-2.58,14.37-17.97,28.3-31.22,28.3-3.03,0-7.3,3.82-34.7,31.22l-31.11,31.11,20.44,20.33c18.31,18.2,21,20.44,25.05,21,5.5.9,11.34,6.63,12.35,12.35.9,4.71-1.8,11.34-5.73,13.93-2.39,1.55-5.6,2.36-8.69,2.36-2.28,0-4.49-.44-6.25-1.35-3.59-1.91-7.97-7.75-7.97-10.78,0-.9-7.97-9.65-17.63-19.31l-17.74-17.74-8.98,8.98-8.98,8.87-14.83.79-14.94.79v-30.1l9.21-9.21,9.32-9.32-15.72-15.72c-11.56-11.68-16.73-16.06-19.76-16.85-12.24-3.37-14.38-20.66-3.15-26.51,2.15-1.09,4.43-1.58,6.67-1.58,7.5,0,14.55,5.54,14.55,13.15,0,2.58,3.37,6.52,19.65,22.8l19.65,19.65,30.88-30.88c24.48-24.48,30.88-31.45,30.88-33.8,0-11,8.31-23.47,19.31-29.08,5.09-2.5,7.2-3.24,11.18-3.24m-118.51,135.55c.73,0,4.12-.42,8.06-1.03,8.76-1.46,8.42-1.01,10.22-11.57.67-3.71,1.12-6.74.9-6.85-.02-.02-.08-.03-.18-.03-1.78,0-15.57,2.86-16.1,3.28-.56.67-3.48,15.72-3.03,16.17.01.01.06.02.14.02M589.85,3.22c-4.34,0-6.7.82-12.05,3.44-11.63,5.94-20.39,19.17-20.41,30.8-.52,2.51-14.03,16.19-30.31,32.46l-29.49,29.49-18.26-18.26c-13.19-13.19-19.07-19.41-19.07-21.41,0-8.34-7.41-15.12-16.52-15.12-2.66,0-5.21.6-7.56,1.79-5.86,3.05-9.04,9.14-8.32,15.92.73,6.87,5.37,12.46,11.84,14.24,3.04.79,9.74,7.1,18.89,16.33l14.34,14.34-7.93,7.93-9.21,9.21-.58.58v32.98l2.07-.11,14.94-.79,14.83-.79.75-.04.53-.53,8.98-8.87,7.6-7.6,16.35,16.35c9.66,9.66,16.01,16.76,17.08,18.39.37,4,5.21,10.04,8.99,12.05,2.02,1.04,4.49,1.58,7.17,1.58,3.58,0,7.14-.98,9.76-2.68,4.57-3,7.64-10.45,6.59-15.95-1.15-6.48-7.55-12.87-13.97-13.93h-.02s-.02,0-.02,0c-3.42-.47-6.33-2.96-23.93-20.45l-19.04-18.93,29.71-29.71c24.11-24.11,30.97-30.64,33.31-30.64,14.28,0,30.39-14.54,33.16-29.92,1.14-6.59-1.03-13.59-5.53-17.84-3.4-3.14-5.47-3.89-11.69-4.24-1.2-.07-2.15-.1-2.98-.1h0Zm-114.09,122.9c2.36-.63,9.18-2.03,12.64-2.61-.14.98-.37,2.37-.72,4.29l-.16.94c-.68,3.99-1.08,6.39-1.86,7.29-.65.75-2.2,1.03-5.65,1.6l-.93.15c-2.36.36-4.37.64-5.76.81.5-3.4,1.8-10.12,2.44-12.46h0Z" style="fill:#fff;"/><path d="m147.79,186.67c-2.39,0-4.8-.58-7.17-1.71-3.72-1.77-6.48-4.84-7.77-8.63-1.25-3.68-.96-7.63.81-11.12,2.51-4.9,9.04-9.52,13.45-9.52,2.11,0,9.2-6.69,21.54-19.03l18.73-18.73-30.41-30.41c-30.06-30.06-31.05-30.93-35.02-30.93-9.95,0-23.32-9.71-28.63-20.77-3.33-6.79-3.57-16.9-.5-21.62,1.29-1.94,3.91-4.35,5.96-5.49,2.75-1.68,5.95-2.54,9.47-2.54,6.95,0,14.6,3.37,21,9.25,6.58,6.04,10.9,14.02,11.87,21.88q.63,5.28,31.05,35.7l30.08,30.07,20.08-20.08c18.38-18.38,20.49-20.84,20.49-23.9s1.13-5.24,4.67-8.78c3.81-3.93,5.4-4.67,10.02-4.67,5.29,0,10.01,2.21,12.94,6.06,2.8,3.67,3.66,8.46,2.38,13.16-1.23,4.48-6.8,10.68-10.69,10.83-1.3.62-8.85,7.21-19.55,17.9l-17.62,17.62,17.33,17.55,1.17,30.04h-32.09l-17-17-15.14,15.03c-9.94,9.94-16.38,17.28-17.65,20.14-2.66,6.08-7.83,9.72-13.8,9.72Zm64.03-46.66c1.41.86,11.28,3.32,14.8,3.32.12,0,.16-.02.16-.02,0-.02.04-.26-.1-.76l-.22-.96c-.37-1.58-1.05-4.52-1.59-7.31l-1.11-5.65-5.66-1.21c-4.3-.86-6.61-1.21-7.97-1.21-.68,0-.93.1-1,.13.02.02.02.18.12.52.35,1.17.92,4.46,1.26,7.34.43,2.66,1.02,5.07,1.3,5.81Z" style="fill:#231f20;"/><path d="m108.25,7.14c13.71,0,29.88,13.88,31.89,30.26q.67,5.62,31.33,36.28l30.77,30.77,20.77-20.77c18.75-18.75,20.77-21.11,20.77-24.59,0-2.81,1.01-4.71,4.38-8.08,3.71-3.82,5.06-4.38,9.32-4.38,10.22,0,16.96,8.54,14.37,17.97-1.23,4.49-6.74,10.11-9.88,10.11-1.01,0-10.11,8.19-20.1,18.19l-18.31,18.31,8.87,8.98,8.87,8.98.56,14.26.56,14.37h-30.66l-8.65-8.65-8.76-8.76-15.83,15.72c-10.1,10.1-16.5,17.4-17.85,20.44-2.57,5.86-7.43,9.14-12.9,9.14-2.19,0-4.47-.52-6.75-1.61-7.07-3.37-9.99-11.57-6.51-18.42,2.36-4.6,8.53-8.98,12.58-8.98,2.25,0,7.19-4.27,22.23-19.31l19.43-19.43-31.11-31.11c-30.43-30.43-31.33-31.22-35.71-31.22-9.66,0-22.57-9.43-27.74-20.22-3.14-6.4-3.48-16.17-.56-20.66,1.12-1.69,3.6-4.04,5.62-5.17,2.72-1.66,5.79-2.41,8.99-2.41m118.36,137.17c1.01,0,1.35-.79,1.01-2.02-.23-1.01-1.12-4.72-1.8-8.2l-1.23-6.29-6.29-1.34c-4.07-.81-6.64-1.24-8.17-1.24-1.86,0-2.2.62-1.83,1.9.34,1.12.9,4.38,1.23,7.19.45,2.81,1.12,5.62,1.46,6.29.67,1.01,12.02,3.71,15.61,3.71M108.25,5.17c-3.69,0-7.05.9-9.98,2.68-2.17,1.22-4.91,3.75-6.26,5.78-3.3,5.08-3.1,15.43.43,22.62,5.53,11.55,19.05,21.32,29.51,21.32,3.54,0,4.82,1.15,34.32,30.64l29.72,29.72-18.04,18.04c-6.5,6.5-18.6,18.6-20.85,18.74-4.8,0-11.63,4.79-14.32,10.06-1.9,3.74-2.2,7.95-.87,11.88,1.38,4.05,4.32,7.32,8.28,9.21,2.5,1.2,5.05,1.8,7.59,1.8,6.38,0,11.88-3.86,14.71-10.31.57-1.29,3.43-5.83,17.44-19.83l14.44-14.34,7.37,7.37,8.65,8.65.58.58h33.52l-.08-2.04-.56-14.37-.56-14.26-.03-.76-.54-.54-8.87-8.98-7.5-7.59,16.92-16.92c10.05-10.05,17.48-16.61,19.15-17.64,4.31-.41,10.03-6.76,11.34-11.53,1.37-4.99.44-10.1-2.55-14.01-3.12-4.1-8.13-6.44-13.73-6.44-4.91,0-6.72.84-10.73,4.98-3.69,3.69-4.94,6.08-4.94,9.45,0,2.64-2.45,5.46-20.2,23.2l-19.38,19.38-29.38-29.37q-30.18-30.18-30.77-35.12c-.99-8.1-5.43-16.29-12.18-22.49-6.58-6.04-14.47-9.51-21.67-9.51h0Zm103.24,128.87c-.27-2.27-.74-5.21-1.13-6.85,1.66.05,4.74.63,7.56,1.19l5,1.07.98,5.02c.54,2.81,1.23,5.76,1.6,7.34.04.18.08.34.11.48-3.67-.33-11.05-2.14-12.99-2.98-.27-.88-.75-2.88-1.13-5.27h0Z" style="fill:#fff;"/><path d="m96.22,517.73c-.53,0-.95-.1-1.29-.3l-.05-.03-.05-.04c-1.3-1.03-.86-3.84-.69-4.67,1.34-5.61,12.26-25.95,21.13-40.41l9.05-14.7,96.77-96.99,96-96.11-90.82-90.82h32.01l-.52-13.35-.66-16.77,90.58,90.36,45.91-45.91c12.22-12.22,23.96-23.91,33.04-32.9q14.12-13.98,14.71-13.98h.42l.3.3c.4.42.57.59.16,15.98l-.63,14.32,13.74-.73,17.25-.79-157.33,157.33c-126.49,126.6-157.37,156.93-165.22,162.28-18.57,12.8-47.74,27.95-53.8,27.95Z" style="fill:#231f20;"/><path d="m441.34,142.08h0c.23,0,.12,6.85-.11,15.27l-.67,15.39,14.82-.79,14.71-.67-155.54,155.53c-125.55,125.66-157.33,156.88-165.08,162.16-18.77,12.94-47.47,27.78-53.24,27.78-.34,0-.6-.05-.77-.16-.56-.45-.67-2.02-.34-3.71,1.24-5.17,11.57-24.71,21-40.09l8.98-14.6,96.69-96.91,96.69-96.81-44.92-44.92-44.92-44.92h30.66l-.56-14.37-.56-14.26,44.7,44.59,44.81,44.7,46.6-46.6c25.6-25.6,46.82-46.6,47.06-46.6m0-1.97q-.89,0-5.23,4.24c-2.43,2.38-5.85,5.75-10.17,10.03-9.09,9-20.83,20.69-33.05,32.91l-45.22,45.22-43.42-43.31-44.7-44.59-3.55-3.55.2,5.02.56,14.26.48,12.33h-33.37l3.36,3.36,44.92,44.92,43.53,43.53-95.3,95.41-96.69,96.91-.16.16-.12.2-8.98,14.6c-8.92,14.56-19.84,34.84-21.24,40.67v.04s-.02.04-.02.04c-.25,1.25-.65,4.29,1.04,5.63l.1.08.11.06c.49.3,1.08.44,1.8.44,6.85,0,36.92-16.11,54.36-28.13,7.91-5.39,38.82-35.74,165.36-162.39l155.54-155.53,3.59-3.59-5.07.23-14.71.67-12.67.67.58-13.22c.43-15.84.33-15.94-.43-16.73l-.58-.6h-.84Z" style="fill:#fff;"/><path d="m601.47,521.5c-3.4,0-15.25-5.37-27.56-12.49l-3.65-2.09q-24.11-13.79-102.56-91.98l-13.82-13.77-90.2-90.09,14.96-14.96c9.59-9.73,14.85-14.66,15.63-14.66.58,0,.66,0,27.04,26.24,17.19,17.1,39.38,39.27,62.48,62.43l5.12,5.13q87.58,87.68,101.17,112.16l.78,1.41c13.42,24.08,13.98,29.45,12.76,31.53-.44.75-1.21,1.16-2.16,1.16Z" style="fill:#231f20;"/><path d="m394.28,282.44c.34,0,40.31,39.75,88.83,88.38,94.33,94.44,92.31,92.2,106.91,118.48,12.02,21.56,15.5,31.22,11.46,31.22-3.14,0-14.83-5.28-27.06-12.35-29.31-16.85-23.36-11.57-119.83-107.69l-89.5-89.39,14.26-14.26c7.86-7.97,14.6-14.37,14.94-14.37m0-1.97c-.9,0-1.06,0-6.01,4.74-3.01,2.89-6.68,6.51-10.33,10.22l-14.25,14.25-1.39,1.39,1.39,1.39,89.5,89.39,13.81,13.77q78.55,78.3,102.77,92.15c1.16.66,2.37,1.36,3.65,2.09,10.84,6.27,23.96,12.62,28.04,12.62,1.32,0,2.39-.58,3.01-1.64,1.33-2.27,1.56-6.84-12.75-32.5l-.78-1.41q-13.65-24.59-101.33-112.37l-5.12-5.13c-23.1-23.16-45.29-45.33-62.48-62.43-8.02-7.98-14.65-14.55-19.16-18.99-2.28-2.25-4.06-3.99-5.29-5.18-2.34-2.27-2.43-2.36-3.29-2.36h0Z" style="fill:#fff;"/><path d="m350,577.09c-5.44-2.9-57.49-31.06-108.9-73.7-31.71-26.31-56.98-52.91-75.09-79.04-22.58-32.6-34.03-64.56-34.03-95V126.2c44.77-2.59,86.44-12.44,123.85-29.27,37.95-17.08,69.62-40.51,94.16-69.66,24.54,29.15,56.21,52.59,94.16,69.66,37.42,16.84,79.08,26.68,123.86,29.27v203.14c0,30.44-11.45,62.41-34.03,95-18.11,26.14-43.38,52.73-75.09,79.04-51.4,42.64-103.46,70.8-108.9,73.7Z" style="fill:url(#linear-gradient);"/><path d="m350,28.81c24.53,28.85,56.06,52.07,93.75,69.03,37.27,16.77,78.73,26.62,123.27,29.31v202.2c0,30.23-11.39,62-33.85,94.42-18.05,26.06-43.25,52.59-74.89,78.84-50.11,41.58-100.86,69.37-108.29,73.36-7.43-3.98-58.12-31.75-108.23-73.31-31.65-26.26-56.86-52.78-74.92-78.85-22.47-32.43-33.87-64.21-33.87-94.45V127.15c44.54-2.68,86-12.54,123.26-29.31,37.69-16.96,69.22-40.18,93.75-69.03m0-3.11c-49.77,59.73-129.42,94.57-219.02,99.55v204.09c0,134.4,219.02,248.88,219.02,248.88,0,0,219.03-114.48,219.03-248.88V125.26c-89.61-4.98-169.26-39.82-219.03-99.55h0Z" style="fill:#231f20;"/><path d="m418.55,107.9c5.03,0,8.38,3.35,8.38,8.38v1.68l-11.73,53.63c0,1.68,1.68,5.03,3.35,5.03h108.94c5.03,0,10.06,3.35,8.38,10.06l-25.14,105.59c-1.68,5.03-5.03,6.7-10.06,6.7l-58.66-3.35c-18.44,0-38.55,5.03-53.63,21.79-20.11,20.11-21.79,50.28-13.41,72.07,8.38,21.79,31.84,33.52,55.31,28.49,18.44-3.35,28.49-21.79,26.82-36.87-1.68-16.76-8.38-21.79-18.44-21.79s-13.41,5.03-13.41,10.06,1.68,8.38,5.03,11.73c5.03,5.03-5.03,20.11-18.44,11.73-8.38-5.03-13.41-15.08-11.73-30.17,1.68-18.44,16.76-35.2,43.57-35.2s46.93,16.76,51.95,41.9c8.38,31.84-8.38,70.39-46.93,90.5-46.93,25.14-125.7,23.46-169.27-23.46-25.14-26.82-33.52-62.01-31.84-93.85,0-10.06,1.68-21.79,5.03-31.84,0-3.35-1.68-6.7-5.03-8.38h-75.42c-5.03,0-8.38-5.03-8.38-10.06v-1.68l23.46-102.23c1.68-6.7,6.7-10.06,13.41-10.06h72.07c3.35-1.68,6.7-3.35,8.38-8.38l11.73-51.95c1.68-6.7,8.38-10.06,13.41-10.06h112.29Z" style="fill:#fff; opacity:.25;"/><path d="m81.08,380.45c-10.4-1.28-12.53-3.72-14.58-6.08-1.2-1.38-2.33-2.68-5.34-3.82l-.9-.34.32-.91c9.24-26.1,13.81-52.16,18.23-77.35.47-2.7.95-5.4,1.43-8.1,3-17.38,6.1-34.35,11.02-50.66-3.32.58-5.97,1.32-8.26,2.29l-.19.08h-.2c-4.09,0-9.17.44-13.65.82l-2.14.18-1.24.04c-2.55.09-4.75.16-6.7.16-2.43,0-4.17-.12-5.59-.38-.16.04-.29.1-.45.16-.57.24-1.11.42-2.39.42h-.15c-5.98-.9-12.05-1.54-17.92-2.16-3.38-.36-6.57-.69-9.58-1.06l-.73-.09-.12-.73c-.07-.45-1.59-1.6-4.92-1.79l-.59-.03-.4-.89c-.87-1.95-1.56-3.5-7.59-3.5h-2.59l1.93-1.72c.4-.36.45-.6-.59-2.04-.46-.63-.93-1.29-1.11-2.01l-.26-1.03,1.05-.18c3.6-.6,6.97-1,10.91-1.42l.85-.09.21.85c5.56-.26,11.56-.38,18.78-.38,4.89,0,9.87.05,14.68.11,4.85.05,9.86.11,14.81.11,6.33,0,12.79-.17,19.63-.35,3.25-.09,6.53-.17,9.8-.24,1.52-4.53,3.66-9.09,5.74-13.51.44-.94.88-1.88,1.32-2.82l.3-.64.7.07c5.02.52,7.34,1.31,8.03,2.74.57,1.18-.17,2.32-.71,3.15-.23.36-.67,1.03-.58,1.21.08.16.72.98,5.93,1.54l1.64.18-.94,1.36c-1.48,2.13-1.59,4.27-1.36,6.29h2.52c8.4-.21,17.09-.41,25.72-.8,3.07-.07,6.06-.11,9.03-.16,5.89-.09,11.99-.18,18.31-.45,18.05-.21,36.02-.61,53.46-1.21h.37s.29.22.29.22c.83.67.76,1.34.64,1.68-.45,1.32-2.54,1.49-8.88,1.67-1.65.05-3.35.1-4.86.19-3.05.94-9,1.28-14.76,1.62-5.22.3-10.63.62-12.85,1.36l-.14.05h-.15c-7.1.21-11.33.83-14.74,1.4h-.1c-1.61.11-3.46.21-5.01.21-1.74,0-2.66-.13-3.22-.29-2.51,1.17-10,1.79-12.92,1.79-.62,0-1.11-.02-1.49-.06-2.08.78-6.5,1.07-11.18,1.37-4.06.26-9.11.59-10.11,1.26l-.22.15-.26.02c-2.99.19-5.51.36-7.64.66.28,3.93-.54,6.96-2.67,9.98-1.2,1.93-4.32,3.32-7.63,4.79-2.53,1.13-5.15,2.3-6.32,3.55-8.84,11.33-6.95,24.21-5.12,36.67,1.79,12.18,3.64,24.77-4.45,35.99-.42.62-.92,1.33-1.46,2.08-3.02,4.23-7.15,10.03-5.82,14.3.65,2.06,2.6,3.68,5.8,4.83l1.58.57-1.27,1.1c-7.21,6.26-6.71,11.34-5.31,17.32l.06.28c1.2,5.8,2.57,12.38-3.88,20.07l-.34.41-.53-.07Z" style="fill:#231f20;"/><path d="m104.52,202.43c17.48,1.81-4.02,6.83,12.66,8.64-1.81,2.61-1.81,5.22-1.41,7.84h2.81c8.64-.2,17.48-.4,26.33-.8,9.24-.2,17.89-.2,27.33-.6,17.68-.2,35.77-.6,53.46-1.21,2.21,1.81-6.63,1.41-12.66,1.81-5.63,1.81-22.91,1.41-27.73,3.01-7.03.2-11.25.8-14.87,1.41-1.61.1-3.42.2-4.95.2s-2.79-.1-3.29-.4c-1.19,1.02-9.02,1.9-12.85,1.9-.69,0-1.25-.03-1.62-.09-3.62,1.61-19.29,1.21-21.7,2.81-3.22.2-6.23.4-8.64.8.4,3.62,0,6.83-2.41,10.25-2.01,3.22-11.05,5.22-13.87,8.24-17.89,22.91,6.43,50.44-9.65,72.75-4.22,6.23-14.47,17.89-1,22.71-7.64,6.63-7.03,12.26-5.63,18.29,1.21,5.83,2.61,12.06-3.62,19.49-16.28-2.01-11.25-6.63-19.69-9.85,10.25-28.94,14.67-57.28,19.69-85.61,3.01-17.48,6.23-35.17,11.46-52.05-4.02.6-7.23,1.41-10.05,2.61-4.82,0-11.05.6-15.88,1-3.01.1-5.63.2-7.86.2s-4.09-.1-5.6-.4c-1.01.2-1.01.6-2.81.6-9.45-1.41-19.29-2.21-27.53-3.22-.2-1.21-2.41-2.41-5.83-2.61-1-2.21-1.61-4.42-8.64-4.42,1.81-1.61-1.01-3.42-1.41-5.02,3.62-.6,7.03-1.01,10.85-1.41l.2.8c6.51-.32,13.02-.42,19.55-.42,9.79,0,19.6.22,29.49.22s19.9-.4,30.14-.6c1.81-5.63,4.62-11.25,7.23-16.88m-1.19-2.1l-.59,1.27c-.43.94-.87,1.87-1.31,2.81-1.99,4.23-4.04,8.6-5.56,12.96-3.06.07-6.14.15-9.13.22-6.83.18-13.27.35-19.59.35-4.95,0-9.96-.06-14.8-.11-4.82-.05-9.8-.11-14.69-.11-6.89,0-12.68.11-18.03.35l-.22-.9-1.7.18c-3.96.42-7.35.82-10.97,1.42l-2.1.35.52,2.07c.23.91.78,1.67,1.27,2.35.18.24.44.61.58.86l-3.71,3.3h5.18c5.39,0,5.91,1.16,6.69,2.91l.16.36.49,1.08,1.18.07c2.36.14,3.69.8,4.03,1.14l.21,1.28,1.46.18c3.02.37,6.22.71,9.6,1.06,5.86.62,11.93,1.26,17.88,2.15l.14.02h.15c1.45,0,2.11-.22,2.76-.49.05-.02.1-.04.14-.06,1.43.24,3.16.35,5.51.35,1.97,0,4.18-.08,6.73-.16l1.19-.04h.05s.05,0,.05,0c.69-.06,1.4-.12,2.14-.18,4.46-.38,9.52-.82,13.57-.82h.4l.37-.16c1.84-.79,3.94-1.42,6.47-1.93-4.67,15.88-7.68,32.36-10.59,49.23-.48,2.69-.95,5.39-1.42,8.1-4.41,25.16-8.97,51.17-18.19,77.19l-.64,1.81,1.8.68c2.78,1.06,3.79,2.21,4.95,3.55,2.59,2.97,5.2,5.18,15.2,6.41l1.06.13.69-.82c6.75-8.06,5.34-14.88,4.09-20.9l-.05-.26v-.02s-.01-.02-.01-.02c-1.36-5.85-1.8-10.44,5-16.36l2.54-2.2-3.17-1.13c-2.9-1.04-4.65-2.45-5.2-4.2-1.19-3.8,2.78-9.37,5.68-13.43.53-.75,1.03-1.45,1.47-2.1,8.3-11.53,6.42-24.32,4.61-36.68-1.88-12.79-3.65-24.87,4.92-35.91,1.07-1.09,3.66-2.25,5.95-3.27,3.42-1.52,6.65-2.96,8.06-5.16,2.47-3.53,2.96-6.87,2.87-9.65,1.9-.22,4.11-.37,6.67-.53l.53-.03.44-.29c.98-.54,6.19-.87,9.63-1.09,5.51-.35,9.15-.64,11.24-1.35.38.03.83.05,1.37.05,1.24,0,9.5-.36,12.99-1.74.76.17,1.76.25,3.15.25,1.58,0,3.45-.1,5.07-.2h.1s.1-.02.1-.02c3.37-.56,7.56-1.18,14.6-1.38h.29s.28-.1.28-.1c2.1-.7,7.43-1.01,12.59-1.31,6.01-.35,11.69-.68,14.88-1.63,1.47-.09,3.12-.14,4.71-.18,6.42-.18,9.08-.26,9.78-2.34.12-.36.42-1.64-.95-2.76l-.57-.47-.74.03c-17.45.6-35.42,1-53.41,1.2h-.03s-.03,0-.03,0c-6.3.27-12.12.35-18.28.45-2.97.04-5.96.09-9.02.16-8.69.39-17.39.6-25.81.79h-.52s-1,.01-1,.01c-.09-1.69.2-3.21,1.26-4.75l1.88-2.72-3.29-.36c-2.88-.31-4.22-.69-4.82-.93.07-.11.14-.21.19-.3.59-.91,1.57-2.43.77-4.11-.87-1.81-3.34-2.73-8.81-3.3l-1.4-.14h0Z" style="fill:#fff;"/><path d="m177.14,366.63c-1.19,0-2.35-.08-3.44-.25-2.02-.2-3.98-.6-5.87-.99-1.78-.37-3.46-.71-4.9-.81l-.29-.02-.23-.17c-.33-.25-.78-.47-1.25-.71-.49-.25-1-.5-1.45-.82-1.03-.43-1.58-1-1.81-1.57-.88-.15-1.71-.5-2.41-.79l-.49-.2c-1.15-.49-2.11-1.18-3.05-1.84-.32-.23-.64-.45-.95-.66l-3.4-2.59-.44-.23c-.87-.45-1.63-.83-2.25-.83h-.41l-.29-.29c-1.81-1.81-3.39-3.69-5.28-6.28-3.46-3.48-6.52-8.51-8.61-14.17-.85-2.07-1.56-4.28-2.15-6.68.01.21.02.43.04.64l.05.65-.57.3c-7.49,3.89-10.49,13.37-8.92,28.16l.12,1.14-1.14-.05c-3.76-.16-5.27-1.13-6.6-1.99-.41-.26-.79-.51-1.23-.73l-.43-.21-.1-.47c-2.21-10.67-4.5-21.71,2.41-30.12.12-2.44.76-5.03,1.37-7.55,1.06-4.32,2.15-8.78.52-12.15l-.21-.44.22-.43c.18-.36.26-.87.34-1.42.16-.99.39-2.49,1.67-3.18-1.16-2.05-1.02-4.41-.89-6.55.17-2.85.31-5.31-2.05-7.13l-.5-.38,1.71-7.7c-.54-6.5,1.99-13.36,4.71-18.65-1.04.57-2.18,1.3-3.31,2.2l-.49.39-.56-.28c-.49-.24-.81-.65-.92-1.14-.07-.34-.05-.69.07-1.08-.43-1.37.98-3.38,2.36-4.93l.05-.05,2.67-2.26,2.38-1.95.2-.06c.7-.2,1.65-.66,2.57-1.11.71-.35,1.45-.71,2.14-.98,1.45-1.62,3.44-2.76,5.38-3.85,2.47-1.4,4.8-2.72,5.08-4.7l.12-.84h.85c2.57,0,4.83-.61,6.93-1.87,1.46-.8,2.78-2.43,4.06-4,.52-.64,1.03-1.27,1.54-1.84l.2-.22.29-.07c.28-.07.55-.1.8-.1.69,0,1.28.24,1.73.71.88.12,1.43.55,1.75.92.81.93,1.05,2.43.74,4.59-.1.81-.3,1.58-.47,2.25-.05.17-.09.35-.13.51.32-.07.66-.15,1-.23l.1-.02c6.76-.99,13.12-1.29,17.76-1.51,2.05-.1,3.82-.18,5.21-.3h.17s.17.03.17.03c2.06.54,4.62.85,7.33,1.18,2.28.28,4.63.56,7.07,1.01,3.03.43,6.06,1.07,8.73,1.83,2.97,1.06,5.41,2.08,7.86,3.71,2.25,1.13,4.86,2.6,7.24,4.98,1.04,1.14,4.31,5.14,4.31,10.34,0,3.99-1.8,7.42-3.36,9.96-2.06,2.76-3.91,4.73-6.04,6.48-4.27,3.46-9,6.34-13.57,9.12-5.59,3.03-10.44,5.78-14.88,8.45l-.2.12-.24.02c-5.16.33-12.56,2.29-22.64,5.97-2.64.86-5.27,1.77-7.82,2.66-5.82,2.02-11.33,3.93-16.41,5.08,1.1,4.58,2.56,9.17,4.1,12.86,1.82,5.05,3.98,9.32,5.65,11.18l.2.23.04.3c.47,3.61,4.27,7.93,7.32,11.4.57.64,1.11,1.27,1.62,1.87,1.79,1.31,3.43,2.69,5.01,4.02,2.37,2,4.61,3.88,7.29,5.51,2.47,1.44,4.98,2.32,7.66,2.68.53.08,1.07.11,1.62.11,2.1,0,4.33-.56,6.46-1.63l.38-.19.4.15c.75.28,1.6.42,2.52.42,3.13,0,6.85-1.59,9.96-4.26,3.39-2.75,6.56-6.77,9.43-11.99l.42-.76.81.32c2.06.82,2.37,2.26,2.6,3.32.05.24.1.47.18.7l.13.38-.17.36c-2.46,5.14-5.65,9.75-9.24,13.33-4.22,4.22-9.59,6.88-14.77,7.31-2.86.94-6.03,1.45-8.96,1.45Zm-40.69-69.44c0,.59,0,1.15.1,1.63,4.48-1.75,9.83-3.9,14.6-5.81l4.65-1.87c7.14-3.69,13.03-6.19,18.44-7.83,1.64-1.06,3.37-2.07,5.2-3.13,2.59-1.5,5.26-3.06,7.71-4.81,4.1-2.74,7.43-6.06,9.16-9.13l2.05-3.08c.37-.61.91-1.39,1.64-1.79,0-.88-.04-1.71-.17-2.25-.21-1.04-.37-1.58-.95-2.15l-.04-.04-.04-.05c-1.08-1.39-3.33-2.56-4.91-2.56-.25,0-.47.03-.67.09l-.44.13-.38-.26c-1.35-.9-2.63-1.58-3.58-1.9l-4.26-1.16c-1.31-.05-2.72-.11-4.19-.17-4.63-.2-9.88-.43-15.16-.43-6.12,0-13.13.13-19.08,1.08-.14.56-.32,1.16-.52,1.83-.1.34-.21.69-.31,1.06v.42l-.25.75q-.15.61-.15.9v.23l-.1.21c-.31.63-.5,1.29-.5,1.77v.14l-.04.14c-1.49,5.01-2.37,9.87-2.37,12.98v.41l-.29.29c-2.14,2.14-2.68,6.23-3.21,10.19-.28,2.13-.58,4.34-1.12,6.3.18,2.77-.2,5.15-.81,7.85Z" style="fill:#231f20;"/><path d="m151.1,230.69c.53,0,.94.23,1.24.68,1.81,0,2.41,1.61,2.01,4.42-.2,1.61-.8,3.01-.8,4.02.8,0,1.61-.2,2.41-.4,9.65-1.41,18.29-1.41,22.91-1.81,3.82,1,9.04,1.21,14.47,2.21,2.81.4,5.83,1,8.64,1.81,2.81,1.01,5.22,2.01,7.64,3.62,2.41,1.21,4.82,2.61,7.03,4.82,2.01,2.21,4.02,5.83,4.02,9.65,0,3.62-1.61,6.83-3.22,9.45-1.81,2.41-3.62,4.42-5.83,6.23-4.22,3.42-8.84,6.23-13.46,9.04-4.82,2.61-9.85,5.43-14.87,8.44-6.23.4-14.67,3.01-22.91,6.03-8.64,2.81-17.28,6.23-24.72,7.84l-.6-1c1,4.62,2.61,10.25,4.62,15.07,1.81,5.02,4.02,9.45,5.83,11.45.6,4.62,5.83,9.85,9.24,13.87,4.42,3.21,7.84,6.83,12.46,9.65,2.41,1.41,5.02,2.41,8.04,2.81.57.08,1.16.12,1.74.12,2.29,0,4.66-.61,6.9-1.73.88.32,1.85.48,2.86.48,3.39,0,7.36-1.71,10.6-4.5,4.22-3.42,7.44-8.24,9.65-12.26,2.01.8,1.81,2.21,2.21,3.42-2.21,4.62-5.22,9.24-9.04,13.06s-9.04,6.63-14.27,7.03c-2.65.88-5.73,1.44-8.76,1.44-1.11,0-2.22-.07-3.29-.24-4.02-.4-7.84-1.61-10.85-1.81-.8-.6-2.01-1-2.81-1.61-1-.4-1.61-1-1.41-1.61-1.21,0-2.41-.6-3.42-1-1.41-.6-2.61-1.61-3.82-2.41l-3.42-2.61c-1.21-.6-2.21-1.21-3.22-1.21-2.01-2.01-3.62-4.02-5.22-6.23-3.42-3.42-6.43-8.44-8.44-13.87-1.81-4.42-2.81-9.04-3.42-13.46-.6,2.61-.8,5.02-.6,7.84-10.45,5.43-10.45,19.69-9.45,29.14-4.62-.2-5.43-1.61-7.44-2.61-2.21-10.65-4.42-21.5,2.41-29.54.2-6.63,4.62-14.67,1.81-20.5.8-1.61,0-4.42,2.81-4.42-4.02-4.22,1.21-11.05-4.02-15.07l1.61-7.23c-.6-6.63,2.21-14.27,6.03-20.9-2.01.8-4.22,2.01-6.23,3.62-.4-.2-.6-.6-.2-1.41-.6-.6.4-2.41,2.01-4.22l2.61-2.21,2.21-1.81c1.41-.4,3.42-1.61,5.02-2.21,3.22-3.82,10.25-5.02,10.85-9.24,3.01,0,5.43-.8,7.44-2.01,2.21-1.21,4.02-4.02,5.83-6.03.2-.05.39-.08.56-.08m-15.64,69.61c6.23-2.41,14.67-5.83,20.7-8.24,6.23-3.22,12.46-6.03,18.49-7.84,4.02-2.61,8.84-5.02,13.06-8.04,4.22-2.81,7.64-6.23,9.45-9.45l2.01-3.01c.6-1.01,1.21-1.61,1.81-1.61,0-1.21,0-2.41-.2-3.22-.2-1-.4-1.81-1.21-2.61-1.2-1.54-3.72-2.94-5.68-2.94-.34,0-.66.04-.95.13-1.21-.8-2.61-1.61-3.82-2.01l-4.42-1.21c-5.43-.2-12.46-.6-19.49-.6s-14.07.2-19.9,1.21c-.2,1-.6,2.21-1.01,3.62v.4l-.2.6q-.2.8-.2,1.21c-.4.8-.6,1.61-.6,2.21-1.61,5.43-2.41,10.25-2.41,13.26-3.62,3.62-3.01,11.45-4.62,17.08.2,2.81-.2,5.22-.8,7.84,0,1,0,2.01.4,2.81l-.4.4m15.64-71.58c-.34,0-.69.05-1.04.13l-.58.15-.4.45c-.53.59-1.06,1.25-1.58,1.88-1.22,1.5-2.47,3.05-3.73,3.74l-.04.02-.03.02c-1.94,1.16-4.04,1.73-6.42,1.73h-1.71l-.24,1.69c-.21,1.5-2.34,2.71-4.59,3.98-1.85,1.05-3.93,2.23-5.47,3.88-.66.27-1.33.6-1.99.92-.88.43-1.8.88-2.41,1.05l-.39.11-.31.26-2.21,1.81-2.64,2.23-.11.09-.09.1c-2.06,2.31-2.94,4.19-2.65,5.61-.1.44-.1.86-.01,1.27.18.79.69,1.43,1.44,1.81l1.13.56.98-.79c.1-.08.2-.16.3-.24-2.1,4.8-3.73,10.43-3.32,15.85l-1.54,6.94-.27,1.22.99.76c1.86,1.43,1.85,3.23,1.67,6.29-.12,2.03-.25,4.25.63,6.31-1.03,1.01-1.27,2.51-1.4,3.32-.07.43-.14.91-.25,1.13l-.43.86.42.87c1.47,3.05.47,7.15-.59,11.49-.6,2.45-1.22,4.98-1.38,7.41-6.96,8.75-4.54,20.39-2.41,30.69l.19.93.85.43c.39.2.76.43,1.14.68,1.43.92,3.06,1.97,7.09,2.14l2.28.1-.24-2.27c-1.51-14.17,1.22-23.26,8.12-27.04.46,1.55.98,3.03,1.56,4.45,2.13,5.75,5.24,10.86,8.77,14.43,1.9,2.61,3.5,4.51,5.34,6.34l.58.58h.81c.38,0,1.1.37,1.8.73.12.06.24.12.37.19l3.27,2.5.05.04.05.04c.31.21.62.43.93.65.93.66,1.98,1.41,3.21,1.94.2.08.36.15.52.21.62.26,1.34.56,2.13.75.38.58,1.01,1.13,1.98,1.56.49.33,1.02.6,1.49.84.42.21.84.42,1.1.62l.47.35.58.04c1.37.09,3.02.43,4.76.79,1.82.37,3.87.8,5.97,1.01,1.13.17,2.32.25,3.54.25,3.03,0,6.2-.51,9.16-1.47,5.37-.48,10.92-3.24,15.27-7.58,3.66-3.66,6.92-8.37,9.43-13.61l.34-.72-.25-.75c-.05-.16-.1-.37-.15-.6-.24-1.12-.65-3-3.2-4.02l-1.62-.65-.84,1.52c-2.81,5.1-5.89,9.03-9.16,11.68l-.02.02-.02.02c-2.94,2.52-6.42,4.02-9.32,4.02-.81,0-1.54-.12-2.18-.36l-.8-.29-.76.38c-1.99,1-4.07,1.52-6.02,1.52-.5,0-.99-.03-1.47-.1-2.56-.34-4.95-1.18-7.33-2.56-2.58-1.57-4.79-3.43-7.13-5.41-1.57-1.32-3.19-2.69-4.97-3.99-.49-.58-1.02-1.17-1.56-1.79-2.96-3.37-6.65-7.56-7.08-10.88l-.08-.61-.41-.45c-1.57-1.74-3.7-5.98-5.44-10.81l-.02-.05-.02-.04c-1.41-3.39-2.76-7.55-3.82-11.76,4.85-1.18,10.06-2.98,15.54-4.88,2.54-.88,5.18-1.79,7.77-2.64h.03s.03-.02.03-.02c9.98-3.65,17.3-5.59,22.36-5.91l.48-.03.41-.25c4.42-2.65,9.26-5.4,14.8-8.4l.04-.02.04-.03c4.6-2.8,9.36-5.7,13.68-9.19,2.2-1.8,4.1-3.83,6.16-6.58l.05-.07.05-.08c1.63-2.65,3.51-6.24,3.51-10.48,0-5.55-3.47-9.8-4.53-10.97l-.03-.03-.03-.03c-2.46-2.46-5.13-3.98-7.44-5.14-2.52-1.66-5.01-2.71-7.96-3.76l-.06-.02-.06-.02c-2.7-.77-5.77-1.41-8.86-1.86-2.46-.45-4.81-.74-7.09-1.02-2.68-.32-5.2-.63-7.2-1.16l-.33-.09-.34.03c-1.37.12-3.13.2-5.18.3-4.57.22-10.81.52-17.47,1.47.1-.43.19-.89.25-1.37.35-2.42.03-4.18-.98-5.34-.4-.46-1.05-.98-2.04-1.19-.6-.5-1.35-.77-2.18-.77h0Zm-4.19,23.88c5.82-.86,12.78-.98,18.3-.98s10.5.23,15.12.42c1.43.06,2.79.12,4.07.17l4.15,1.13c.87.3,2.04.92,3.3,1.76l.77.51.89-.27c.07-.02.19-.05.38-.05,1.27,0,3.24,1.04,4.13,2.18l.08.1.09.09c.38.38.49.7.67,1.61v.05s.02.05.02.05c.09.34.12.89.13,1.5-.76.59-1.26,1.4-1.5,1.8l-1.98,2.98-.04.06-.04.06c-1.65,2.94-4.87,6.14-8.82,8.77l-.03.02-.03.02c-2.41,1.72-5.06,3.26-7.63,4.75-1.8,1.05-3.5,2.04-5.13,3.08-5.41,1.65-11.29,4.15-18.47,7.85-1.41.57-2.96,1.19-4.58,1.84-4.33,1.74-9.14,3.67-13.34,5.32,0-.04,0-.08,0-.11.61-2.68.98-5.08.82-7.85.53-1.98.82-4.16,1.1-6.27.5-3.8,1.03-7.72,2.93-9.62l.58-.58v-.81c0-3.03.87-7.78,2.33-12.7l.08-.27v-.29c0-.27.12-.78.4-1.33l.21-.42v-.46c0-.06,0-.11,0-.16,0-.04.06-.25.12-.5l.18-.53.1-.3v-.44c.09-.32.18-.62.27-.92.13-.42.25-.84.36-1.24h0Z" style="fill:#fff;"/><path d="m246.6,363.98c-3.45,0-6.4-.67-9.28-2.11-2.52-1.08-4.84-2.6-7.25-4.77l-.07-.07c-.35-.39-.7-.77-1.04-1.14-1.49-1.63-2.9-3.16-4.08-5.02-3.15-4.4-5.36-9.18-6.56-14.17-1.19-5.45-1.6-10.35-1.23-14.58,0-2.47.19-4.75.61-7.31.06-.32.14-.62.21-.94.19-.77.38-1.56.38-2.32v-.16l.05-.15c.17-.51.3-1.03.43-1.52.18-.68.35-1.33.59-1.95,2.29-7.26,6.16-13.69,10.98-18.31-.44-.11-.77-.3-.99-.6-.17-.23-.24-.5-.23-.78-.84-4.12.94-7.88,2.36-10.37l.31-.62c1.45-2.87,2.49-4.95,1.98-8.18l-.08-.49.35-.35c.46-.46.86-.84,1.2-1.17.84-.81,1.3-1.25,1.67-1.86.33-.5.5-.97.68-1.9l.03-.13.06-.12c.14-.29.23-.67.34-1.15.13-.57.29-1.29.62-2.17l.09-.25.21-.17c3.74-3.03,8.34-4.76,12.61-4.76.68,0,1.36.05,2.01.13,1.02.17,2.08.37,3.13.75.67-.15,1.43-.15,2.16-.15,1.41,0,2.82.2,4.18.38,1.37.19,2.79.39,4.22.39.74,0,1.42-.05,2.09-.16l.46-.07.35.31c6.25,5.55,9.93,12.44,11.91,17.24,2.03,5.52,3.23,11.33,3.69,17.79.54,10.12-.58,19.88-3.65,31.67-.18.54-.37,1.05-.56,1.57-.12.31-.23.63-.35.95,4.23-.82,8.4-2.21,12.17-4.04.29-.77.92-.85,1.13-.85.61,0,1.02.43,1.42.86.04.04.09.09.14.15,1.95-1.19,3.1-2.27,2.82-3.94l-.5-3.03,2.17,2.17c2.15,2.15,2.51,4.14,1.08,5.93-.19.23-.4.46-.63.69-.76.79-1.09,1.18-.82,2l.23.68-.58.42c-3.06,2.25-6.38,4.11-9.85,5.54l-.47.19-.43-.27c-.74-.47-1.41-.69-2.12-.69-.81,0-1.66.28-2.69.65-.42.77-.85,1.35-1.41,1.91-.16.16-.33.32-.49.46-.4.37-.72.65-.93,1.09l-.27.54h-.61c-1.03,0-2.19,0-3.35.12-2.57,5.69-5.36,10.46-8.53,14.57-3.16,3.9-7.13,8.28-12.77,11.32-2.77,1.28-6.12,2.12-9.24,2.33h-.03s-.03,0-.03,0Zm-7.01-13.33c1.48.58,2.86.87,4.22.87,1.04,0,2.05-.17,3.08-.51,1.07-.36,1.98-.89,3.18-1.69.65-.44,1.26-1.02,1.91-1.65.44-.42.89-.85,1.37-1.27,2.58-2.75,5.03-6.15,7.62-9.76.28-.39.57-.79.85-1.18-1.74-.48-3.15-1.07-4.3-1.78l-.09-.06-.08-.08c-.27-.27-.89-.89-1.15-1.02l-.23-.12-.15-.22c-.13-.2-.29-.36-.44-.53-.29-.31-.61-.66-.81-1.14-.88-1.14-1.38-2.34-1.5-3.56-.13-.08-.26-.17-.39-.25-1.03-.66-2.1-1.35-2.96-2.21-.49-.49-1.03-.98-1.58-1.48-.44-.4-.87-.79-1.28-1.19-.06,0-.12,0-.18,0-.67,0-1.21-.21-1.69-.4-.39-.16-.74-.29-1.11-.29-.23,0-.47.05-.74.16l-.56.23-.45-.4c-1.65-1.46-2.63-3.43-2.93-5.84-.18-1.77.19-3.22.55-4.63.06-.24.12-.48.18-.72-.59-.87-1.28-1.84-1.97-2.82-.92.79-2.22,1.4-3.57,2.03-.47.22-.94.44-1.4.67-2.65,1.32-4.34,2.56-5.03,3.66-3.23,6.28-3.82,14.53-1.51,21.48.94,3.39,2.63,6.51,5.04,9.32l1.96,1.95c.6.6,1.16,1.16,1.9,1.72,1.23.88,2.74,1.84,4.26,2.71Zm4.02-50.96c.68,3.75,1.49,6.79,2.49,9.28.76,1.71,1.72,3.24,2.73,4.86l.05.09c.35.71.9,1.43,1.62,2.16.21.21.41.43.62.67.4.44.81.9,1.28,1.25l.07.05.06.06c2.18,2.34,5.22,4.22,9.05,5.57,2.44,1.04,4.92,1.66,7.61,1.91,2.07-3.18,3.57-6.3,4.59-9.52,1.68-5.86.56-10.63-2.98-12.72l-.82-.48.46-.84c5.13-9.38,1.1-17.86-1.76-22.09-1.03-1.42-2.21-2.83-3.63-4.35v.35l-.45-.45-.06.12c-.3.59-.78.66-.98.66h0c-.3,0-.52-.09-.68-.24l-.1.24-.85-2.39c-.1-.31-.21-.68-.31-1.05-.08-.27-.15-.54-.23-.78-.03-.04-.06-.08-.09-.12-.09-.12-.2-.26-.27-.3l-.09-.05-.08-.07c-.89-.71-1.93-1.57-2.99-2.46-.25.13-.49.32-.75.51-.18.14-.36.27-.53.39l-.05.03-.05.03c-1.02.51-1.98,1.31-3.08,2.23-.5.42-1.02.85-1.58,1.28l-.46.36-.53-.23c-.16-.07-.3-.1-.41-.1-.27,0-.52.31-.9.82l-.1.13c-.62,1.02-1.37,2.02-3.02,2.21-1.01,1.96-1.78,3.89-2.31,5.86.48-.06.98-.08,1.47-.08.65,0,1.32.05,1.98.14.34.07.6.11.86.14.66.1,1.35.2,2.05.55l.06.03.05.03c.16.1.33.21.5.32.51.31,1.09.67,1.6,1.16,1.72,1.26,2.34,3,2.73,4.53l.15.6-.47.4c-2.57,2.17-3.24,2.61-3.93,2.61-.8,0-1.12-.6-1.27-1.04-.15.5-.33,1.32-.48,2.62l-1.96-.11c0,.4.29.65.46.69h-.08c-.15,0-.39.03-.65.14-.11.1-.22.2-.33.29-.25.21-.43.36-.61.64-.26.38-.56.69-.83.95-.22.22-.43.43-.58.65-.38.51-.65.97-.92,1.42-.09.16-.18.31-.27.45Z" style="fill:#231f20;"/><path d="m251.56,255.36c.64,0,1.26.04,1.87.12,1.21.2,2.21.4,3.22.8.6-.2,1.41-.2,2.21-.2,2.73,0,5.47.77,8.41.77.73,0,1.48-.05,2.25-.17,5.43,4.82,9.24,11.05,11.66,16.88,2.21,6.03,3.22,11.86,3.62,17.48.6,11.25-1,21.3-3.62,31.35-.4,1.21-1,2.61-1.41,4.02,5.02-.8,10.05-2.41,14.47-4.62.04-.39.14-.54.28-.54.39,0,1.09,1.21,1.59,1.21.13,0,.24-.08.33-.26,2.01-1.21,3.82-2.61,3.42-5.02,2.21,2.21,1.81,3.62,1,4.62-.8,1-2.21,1.81-1.61,3.62-3.01,2.21-6.23,4.02-9.65,5.43-.96-.61-1.81-.84-2.64-.84-1.08,0-2.14.39-3.39.84-.4.8-.8,1.41-1.41,2.01-.6.6-1.21,1-1.61,1.81-1.21,0-2.61,0-4.02.2-2.41,5.43-5.22,10.45-8.64,14.87-3.42,4.22-7.23,8.24-12.46,11.05-2.61,1.21-5.83,2.01-8.84,2.21-3.22,0-6.03-.6-8.84-2.01-2.81-1.21-5.02-2.81-7.03-4.62-1.81-2.01-3.62-3.82-5.02-6.03-3.01-4.22-5.23-8.84-6.43-13.87-1-4.62-1.61-9.65-1.21-14.27,0-2.61.2-4.82.6-7.23.2-1,.6-2.21.6-3.42.4-1.21.6-2.41,1-3.42,2.41-7.64,6.63-14.67,12.46-19.49-1.21,0-2.81,0-2.61-.6-.8-3.62.6-7.03,2.21-9.85,1.61-3.22,3.01-5.63,2.41-9.45,1.61-1.61,2.41-2.21,3.01-3.22.4-.6.6-1.21.8-2.21.4-.8.4-1.81,1-3.42,3.64-2.94,8.02-4.55,11.99-4.55m-.34,17.41c-.3-.13-.56-.18-.8-.18-.87,0-1.34.76-1.82,1.39-.6,1-1.21,1.81-2.81,1.81-1.41,2.61-2.41,5.22-3.01,8.04.94-.24,1.88-.33,2.79-.33.64,0,1.25.05,1.84.13,1,.2,1.81.2,2.61.6.6.4,1.41.8,2.01,1.41,1.41,1,2.01,2.41,2.41,4.02-2.09,1.76-2.91,2.38-3.3,2.38-.32,0-.34-.42-.52-.97-.15-.38-.42-.74-.73-.74-.5,0-1.1.93-1.48,4.16,0-.2-.25-.3-.6-.3s-.8.1-1.21.3c-.4.4-.8.6-1.21,1.21-.4.6-1,1-1.41,1.61-.6.8-1,1.61-1.41,2.21.6,3.42,1.41,6.83,2.61,9.85.8,1.81,1.81,3.42,2.81,5.02.4.8,1,1.61,1.81,2.41.6.6,1.21,1.41,2.01,2.01,2.61,2.81,6.03,4.62,9.45,5.83,2.81,1.21,5.63,1.81,8.44,2.01,2.01-3.01,3.82-6.43,5.02-10.25,1.61-5.63,1-11.25-3.42-13.87,4.62-8.44,2.41-16.88-1.81-23.11-1.61-2.21-3.42-4.22-5.43-6.23v.4s-.04-.03-.06-.03c-.18,0-.34.74-.34,1.64-.04.08-.07.11-.1.11-.22,0-.19-2.03-.47-2.03-.06,0-.14.09-.23.31-.2-.6-.4-1.41-.6-2.01-.2-.2-.4-.6-.8-.8-1-.8-2.21-1.81-3.42-2.81-.8.2-1.41.8-2.01,1.21-1.61.8-3.01,2.21-4.82,3.62m-7.41,79.74c1.18,0,2.31-.2,3.39-.56,1.21-.4,2.21-1.01,3.42-1.81,1.21-.8,2.21-2.01,3.42-3.01,3.22-3.42,6.23-7.84,9.45-12.26-1.81-.4-3.82-1-5.43-2.01-.4-.4-1.01-1-1.41-1.21-.4-.6-1.01-1-1.21-1.61-.8-1-1.41-2.21-1.41-3.62-1.21-.8-2.61-1.61-3.62-2.61-1-1-2.21-2.01-3.22-3.01-.18.05-.36.07-.52.07-.99,0-1.71-.7-2.8-.7-.33,0-.69.06-1.1.23-1.81-1.61-2.41-3.62-2.61-5.22-.2-2.01.4-3.62.8-5.43-.8-1.21-1.81-2.61-2.81-4.02-.2,0-.2.2-.4.2-1.01,1.21-3.22,2.01-5.22,3.01-2.01,1.01-4.42,2.41-5.43,4.02-3.42,6.63-4.02,15.07-1.61,22.31,1,3.62,2.81,6.83,5.22,9.65l2.01,2.01c.6.6,1.21,1.21,2.01,1.81,1.41,1.01,3.01,2.01,4.42,2.81,1.66.66,3.2.96,4.65.96m7.75-99.12c-4.5,0-9.32,1.82-13.23,4.98l-.42.34-.19.5c-.35.94-.52,1.69-.66,2.3-.09.4-.17.75-.26.93l-.12.24-.05.26c-.18.89-.31,1.21-.51,1.51l-.03.04-.02.04c-.28.47-.67.85-1.5,1.65-.35.33-.75.72-1.22,1.18l-.71.71.16.99c.46,2.92-.47,4.78-1.89,7.59l-.31.62c-1.48,2.6-3.31,6.52-2.46,10.89,0,.45.15.9.42,1.28.06.08.12.16.19.23-4.5,4.64-8.11,10.84-10.32,17.82-.25.65-.43,1.34-.6,2-.13.48-.26.99-.41,1.46l-.1.3v.32c0,.64-.18,1.37-.35,2.08-.08.33-.16.65-.22.95v.03s-.01.03-.01.03c-.43,2.58-.63,4.89-.63,7.47-.36,4.31.06,9.28,1.25,14.77,1.23,5.13,3.49,10.01,6.72,14.55,1.22,1.91,2.71,3.54,4.16,5.11.34.37.69.75,1.04,1.14l.07.08.08.07c2.48,2.23,4.87,3.8,7.52,4.95,3.01,1.49,6.08,2.19,9.67,2.19h.13c3.24-.22,6.72-1.09,9.54-2.39l.05-.03.05-.03c5.79-3.12,9.85-7.59,13.06-11.55,3.15-4.08,5.91-8.74,8.44-14.27.93-.07,1.85-.07,2.69-.07h1.22l.54-1.09c.13-.26.32-.44.72-.8.17-.16.35-.32.52-.49.55-.55.98-1.11,1.39-1.8.79-.28,1.44-.47,2.01-.47.35,0,.84.06,1.59.54l.86.55.94-.39c3.55-1.46,6.93-3.37,10.06-5.66l1.16-.85-.45-1.36c-.09-.26-.1-.29.59-1.01.22-.22.46-.48.69-.76,1.01-1.26,2.21-3.89-1.15-7.24l-4.34-4.34,1.01,6.05c.13.78-.12,1.45-1.71,2.52-.41-.37-.96-.73-1.7-.73-.65,0-1.42.31-1.87,1.09-3.1,1.48-6.46,2.65-9.89,3.45.1-.28.2-.55.28-.81l.02-.06.02-.06c3.09-11.89,4.23-21.74,3.68-31.95-.47-6.59-1.69-12.48-3.73-18.06v-.04s-.03-.04-.03-.04c-2.03-4.9-5.78-11.92-12.17-17.6l-.7-.62-.92.15c-.62.1-1.25.14-1.94.14-1.36,0-2.68-.18-4.09-.38-1.4-.19-2.84-.39-4.32-.39-.69,0-1.4,0-2.09.12-1.03-.35-2.05-.53-3.01-.69h-.03s-.03,0-.03,0c-.69-.09-1.41-.14-2.14-.14h0Zm-.05,21.64l.92-.71c.57-.45,1.1-.88,1.6-1.3,1.06-.88,1.98-1.65,2.89-2.11l.11-.05.1-.07c.19-.13.38-.27.58-.42.03-.02.06-.05.09-.07.85.71,1.7,1.4,2.43,2l.16.13.06.03s.03.04.05.06c.06.19.11.39.17.59.11.38.22.76.33,1.09l1.64,4.91.79-1.85s.09,0,.14,0c.4,0,.77-.11,1.09-.32l1.38,1.38v-.14c.67.79,1.28,1.57,1.85,2.35,2.73,4.05,6.57,12.14,1.69,21.04l-.91,1.67,1.64.97c4.5,2.66,3.28,8.98,2.53,11.61-.93,2.95-2.29,5.82-4.14,8.75-2.36-.27-4.55-.85-6.66-1.75l-.06-.03-.06-.02c-3.68-1.3-6.59-3.09-8.66-5.31l-.12-.13-.14-.11c-.39-.29-.76-.7-1.14-1.12-.22-.25-.44-.49-.66-.7-.65-.65-1.13-1.29-1.44-1.9l-.04-.08-.05-.08c-.99-1.59-1.92-3.08-2.67-4.75-.93-2.34-1.7-5.19-2.36-8.69.03-.05.05-.09.08-.14.25-.43.51-.87.83-1.29l.03-.04.03-.05c.09-.14.27-.32.46-.5.28-.28.64-.64.95-1.1.11-.16.19-.23.43-.43.07-.06.14-.12.21-.18.06-.02.11-.02.14-.02-.03,0-.07,0-.1,0,.1-.08.19-.17.29-.27l-1.38-1.38,3.75.22c.03-.29.07-.56.1-.8.23.07.46.09.67.09,1.08,0,1.88-.57,4.57-2.84l.94-.79-.3-1.19c-.4-1.59-1.11-3.6-3.05-5.05-.57-.54-1.21-.93-1.72-1.24-.16-.1-.32-.2-.47-.29l-.1-.07-.11-.05c-.84-.42-1.64-.54-2.35-.65-.24-.04-.49-.07-.76-.13h-.05s-.05-.02-.05-.02c-.71-.1-1.42-.15-2.12-.15-.04,0-.08,0-.13,0,.43-1.3.97-2.6,1.62-3.9,1.86-.42,2.7-1.73,3.19-2.55l.07-.1c.07-.1.17-.23.26-.34l.94.4h0Zm-22.7,38.91c.44-.66,1.6-1.74,4.6-3.24.45-.23.92-.44,1.38-.66,1.05-.49,2.07-.96,2.94-1.53.39.56.78,1.1,1.13,1.62-.02.1-.05.19-.07.29-.36,1.42-.77,3.03-.57,4.95.34,2.7,1.43,4.87,3.26,6.5l.91.81,1.13-.45c.15-.06.27-.09.37-.09.17,0,.4.08.74.22.46.18,1.08.43,1.84.47.34.32.68.63,1.01.93.55.5,1.07.97,1.54,1.45.93.93,2.1,1.68,3.13,2.34,0,0,0,0,0,0,.2,1.21.72,2.37,1.57,3.49.27.57.65.98.94,1.29.14.15.27.3.35.41l.29.43.47.23c.17.11.7.64.9.84l.16.16.19.12c.91.57,1.98,1.06,3.22,1.48-.02.02-.03.05-.05.07-2.56,3.56-4.97,6.92-7.5,9.61-.5.42-.95.85-1.38,1.27-.61.59-1.19,1.15-1.77,1.54-1.13.76-1.98,1.26-2.95,1.58-.93.31-1.83.46-2.77.46-1.22,0-2.46-.25-3.79-.77-1.47-.84-2.93-1.78-4.13-2.64-.65-.49-1.19-1.03-1.76-1.6l-1.96-1.96c-2.28-2.68-3.89-5.65-4.77-8.84v-.05s-.03-.05-.03-.05c-2.22-6.67-1.67-14.59,1.45-20.7h0Z" style="fill:#fff;"/><path d="m311.98,397.67c-.55-1.65-.96-3.53-1.19-5.46-1.76-.8-2.77-1.72-3.15-2.86-.53-1.58.4-3.13,1.01-4.15.67-1.01,1.15-1.8.94-2.46-.16-.5-.82-1.28-3.06-2.15l-1.08-.42.58-1c1.45-2.49,2.56-5.17,3.11-7.56v-.06s.03-.05.03-.05c.58-1.63.95-3.25,1.34-4.95.26-1.12.52-2.28.85-3.43.31-1.75.81-3.75,1.54-6.19-.42-1.8-1.02-3.12-1.98-4.4-.63-1.03-.77-1.83-.47-2.53.47-1.09,1.75-1.36,2.88-1.6.42-.09,1.09-.23,1.33-.38,0-.03-.07-.18-.07-.18l-.02-.07c-4.55-16.86-8.1-37.97-10.28-61.06-.53-3.6-.72-7.18-.89-10.65-.09-1.72-.18-3.51-.31-5.25-.41-5.71-.61-10.93-.61-15.95s0-9.63-.2-14.23c-.2-4.36-.39-8.49-1.57-12.63l-.17-.6.47-.41c3.44-3.04,7.13-5.9,10.7-8.68l.89-.69.56.98c1.89,3.26,2.91,6.63,3.9,9.89.2.66.4,1.31.6,1.96l.03.1c.86,4.31,1.44,7.91,1.82,11.34.39,3.45.7,6.89.99,10.22.3,3.44.61,7,1.02,10.48.84,6.91,1.64,14.12,2.41,21.09.71,6.42,1.44,13.06,2.22,19.5,1.66,14.29,2.53,27.27,2.61,38.63.9-.51,1.76-1.05,2.35-1.63,2.51-2.51,4.71-5.2,7.12-8.7,1.94-2.91,3.93-6.08,5.33-9.46,2.11-4.77,3.78-9.63,5.55-14.76.74-2.16,1.49-4.33,2.28-6.5,4.73-14.2,10.32-28.95,21.77-39.38.76-.71,1.63-1.48,2.56-2.31,6.35-5.65,15.05-13.39,11.68-20.45l-.41-.86.84-.44c3.84-2.01,6.66-4.29,9.13-7.38,2.12-2.3,3.76-5.06,5.35-7.72l.61-1.01c.79-1.59,1.82-3.24,2.82-4.84,1.05-1.67,2.3-3.13,3.5-4.54,3.32-3.57,6.66-6.13,10.56-8.08l.69-.34.5.59c4.58,5.36,3.95,8.58,3.4,11.41-.34,1.73-.66,3.37.19,5.55l.27.7-.6.45c-1.87,1.4-3.57,2.75-4.77,3.78l-4.78,4.59c-1.37,1.37-2.85,2.8-4.35,4.25-1.56,1.51-3.14,3.04-4.68,4.57-5.04,5.94-10.81,12.75-15.97,19.97-5.05,6.87-9.7,14.36-14.03,21.44-1.11,1.81-2.22,3.68-3.32,5.54-1.1,1.86-2.21,3.71-3.31,5.51l-3.2,5.6-3,5.6c-2.21,3.81-4.24,7.67-6.2,11.39-.9,1.62-1.71,3.18-2.57,4.83-1.1,2.13-2.24,4.32-3.51,6.51-1.45,3.08-3.18,6.03-5.01,9.16-.4.69-.81,1.39-1.22,2.09-2.03,3.32-4,6.82-6.21,11.02-3.83,6.45-7.68,13.13-11.4,19.6-.29,1.25-.58,2.55-.86,3.85-.3,1.37-.61,2.73-.91,4.05l-1.94,8.42v-9.7c-.9,1.64-1.79,3.27-2.65,4.87-.76,1.41-1.51,2.8-2.26,4.16-.88,4.38-2.08,9.52-4.25,14.52l-1.02,2.35-.81-2.44Zm5.73-94.24c-1.24,14.68-.15,28.57.91,42.03l.1,1.26c.84-.84,2.1-1.49,3.42-2.17.28-.14.56-.29.84-.43v-8.26c-.4-6.45-1.01-12.85-1.8-18.97-.89-4.43-1.93-9.08-3.47-13.47Z" style="fill:#231f20;"/><path d="m420.23,204.64c7.03,8.24,1,10.45,3.42,16.68-1.61,1.21-3.42,2.61-4.82,3.82l-4.82,4.62c-2.81,2.81-6.03,5.83-9.04,8.84-5.63,6.63-11.05,13.06-16.08,20.1-5.02,6.83-9.65,14.27-14.07,21.5-2.21,3.62-4.42,7.44-6.63,11.05l-3.21,5.63-3.01,5.63c-2.21,3.82-4.22,7.64-6.23,11.46-2.01,3.62-3.82,7.44-6.03,11.25-1.81,3.82-4.02,7.44-6.23,11.25-2.21,3.62-4.22,7.24-6.23,11.05-3.82,6.43-7.64,13.06-11.46,19.69-.6,2.61-1.21,5.43-1.81,8.04v-4.82c-2.41,4.22-4.62,8.44-6.83,12.46-1.01,5.02-2.21,9.85-4.22,14.47-.6-1.81-1-3.82-1.21-5.83-4.42-1.81-3.42-3.82-2.21-5.83,1.21-1.81,2.61-4.02-2.61-6.03,1.41-2.41,2.61-5.22,3.22-7.84,1.01-2.81,1.41-5.63,2.21-8.44.4-2.21,1-4.42,1.61-6.43-.4-1.81-1-3.42-2.21-5.02-2.21-3.62,5.02-1.61,3.82-4.42-4.82-17.89-8.24-39.59-10.25-60.89-.8-5.43-.8-10.65-1.21-15.88-.4-5.63-.6-10.85-.6-15.88s0-9.65-.2-14.27c-.2-4.42-.4-8.64-1.61-12.86,3.42-3.01,7.03-5.83,10.65-8.64,2.21,3.82,3.22,7.84,4.42,11.66.8,4.02,1.41,7.64,1.81,11.25.8,7.03,1.21,13.87,2.01,20.7,1.61,13.26,3.01,27.13,4.62,40.6,1.61,13.87,2.61,27.53,2.61,40.19,1.41-.8,3.01-1.61,4.02-2.61,2.81-2.81,5.02-5.63,7.23-8.84,2.01-3.01,4.02-6.23,5.43-9.65,3.01-6.83,5.22-14.07,7.84-21.3,4.82-14.47,10.25-28.74,21.5-38.99,6.03-5.63,18.69-15.07,14.47-23.92,4.22-2.21,7.03-4.62,9.45-7.64,2.41-2.61,4.22-5.83,6.03-8.84.8-1.61,1.81-3.22,2.81-4.82,1-1.61,2.21-3.01,3.42-4.42,2.61-2.81,5.83-5.63,10.25-7.84m-102.29,144.7c.2-.4.6-1,1.21-1.61,1-1.21,3.01-2.01,4.82-3.01v-8.84c-.4-6.43-1.01-12.86-1.81-19.09-1.21-6.03-2.61-12.06-5.02-17.48-2.01,17.69-.4,34.37.8,50.04m102.79-147.14l-1.38.69c-4,2-7.44,4.62-10.81,8.26l-.03.03-.03.03c-1.23,1.44-2.51,2.93-3.59,4.66-1,1.6-2.03,3.25-2.87,4.92l-.57.95c-1.56,2.62-3.18,5.34-5.18,7.51l-.05.05-.04.05c-2.38,2.98-5.1,5.18-8.82,7.12l-1.68.88.82,1.71c3.05,6.39-5.33,13.85-11.45,19.29-.93.83-1.81,1.61-2.59,2.34-11.61,10.57-17.25,25.46-22.03,39.8-.77,2.13-1.53,4.33-2.26,6.46-1.76,5.12-3.43,9.96-5.51,14.67-1.38,3.35-3.34,6.47-5.26,9.35-2.36,3.43-4.52,6.07-6.99,8.54-.19.19-.42.38-.68.57-.15-10.97-1.03-23.39-2.6-36.98-.77-6.44-1.5-13.07-2.21-19.48-.77-6.98-1.57-14.2-2.41-21.13-.41-3.46-.72-7.01-1.02-10.45-.29-3.33-.59-6.78-.99-10.24-.38-3.45-.97-7.08-1.83-11.42l-.02-.1-.03-.1c-.2-.65-.4-1.3-.6-1.96-1.01-3.31-2.05-6.73-3.99-10.09l-1.13-1.95-1.78,1.38c-3.58,2.78-7.28,5.66-10.75,8.72l-.93.82.34,1.19c1.15,4.03,1.34,8.1,1.53,12.41.2,4.58.2,9.24.2,14.18s.2,10.29.61,16.02c.13,1.74.22,3.52.31,5.24.18,3.47.36,7.06.9,10.74,2.15,22.82,5.65,43.72,10.13,60.51-.11.02-.22.05-.32.07-1.23.26-2.91.62-3.58,2.17-.43,1-.27,2.13.48,3.35l.05.08.06.07c.83,1.1,1.36,2.26,1.75,3.79-.47,1.59-1.07,3.79-1.49,6.04-.32,1.14-.58,2.28-.84,3.38-.38,1.68-.75,3.26-1.31,4.84l-.04.11-.03.11c-.53,2.3-1.59,4.88-3,7.29l-1.17,2,2.16.83c2.24.86,2.47,1.52,2.47,1.52.08.26-.55,1.22-.79,1.58l-.03.04-.02.04c-.66,1.1-1.77,2.95-1.1,4.96.43,1.29,1.45,2.33,3.18,3.21.25,1.81.64,3.56,1.16,5.12l1.62,4.87,2.05-4.71c2.19-5.03,3.4-10.17,4.29-14.57.73-1.32,1.45-2.67,2.19-4.03.27-.5.54-.99.81-1.49v14.47l3.88-16.83c.3-1.32.61-2.69.91-4.06.28-1.25.55-2.49.83-3.7,3.7-6.42,7.52-13.05,11.3-19.42l.03-.04.02-.04c2.2-4.18,4.16-7.66,6.17-10.94.43-.74.84-1.44,1.24-2.13,1.83-3.12,3.55-6.07,5.05-9.23,1.26-2.18,2.4-4.37,3.49-6.48.85-1.64,1.66-3.2,2.51-4.73l.05-.1c1.96-3.72,3.98-7.56,6.16-11.33l.02-.03.02-.03,3-5.6,3.19-5.58c1.1-1.8,2.22-3.68,3.3-5.5,1.09-1.83,2.21-3.72,3.32-5.53,4.32-7.07,8.96-14.54,13.97-21.36,5.13-7.19,10.87-13.95,15.94-19.93,1.51-1.51,3.08-3.03,4.6-4.5,1.54-1.49,2.99-2.89,4.38-4.29l4.75-4.55c1.51-1.29,3.38-2.72,4.68-3.7l1.19-.89-.54-1.39c-.74-1.92-.48-3.28-.14-5.01.6-3.05,1.27-6.52-3.61-12.24l-1-1.17h0Zm-101.17,142.67c-.91-11.61-1.83-23.54-1.22-36.01.73,2.74,1.33,5.53,1.88,8.25.78,6.06,1.38,12.39,1.78,18.83v7.6c-.1.05-.2.1-.3.16-.72.37-1.45.75-2.13,1.17h0Z" style="fill:#fff;"/><path d="m366.5,368.64c-.4,0-.76-.15-1-.42-.09-.1-.15-.2-.2-.3-.62-.12-1-.38-1.4-.69-.09-.07-.18-.14-.28-.21l-.35-.24-.07-.42c-.2-1.17.07-2.04.28-2.73.05-.16.1-.32.14-.48l.03-.11.05-.1c.54-1.08,1.32-1.76,1.9-2.16l.43-.36c1-.83,1.87-1.55,2.88-2.57l.21-.21.29-.06c1.76-.35,3.71-.87,5.64-1.4v-.65c0-3.93.31-6.77,1.04-9.5.48-2.13,1.03-4.33,1.56-6.46.98-3.95,2-8.04,2.65-11.94.85-5.57,2.65-10.83,4.39-15.92,1.13-3.31,2.3-6.72,3.18-10.15-2.27-5.19-2.39-10.89-2.51-16.39-.04-2.09-.09-4.25-.25-6.33-.2-2.04,1.42-2.52,2.21-2.75.25-.08.53-.16.7-.25,1.1-4.54,4.15-6.78,7.11-8.94,1.35-.99,2.63-1.93,3.72-3.08l.24-.25.34-.05c2.02-.29,3.51-1.17,5.09-2.1.46-.27.93-.54,1.41-.81,1.43-.78,3.23-1.58,5.67-1.58.93,0,1.88.11,2.9.34,2.67-2.83,6.8-4.27,12.3-4.27,1.08,0,2.22.06,3.4.17l.56.05.24.51c.9,1.95.25,3.24-.27,4.28-.33.67-.65,1.3-.65,2.16,0,.69.19,1.39.39,2.13.44,1.61.94,3.44-.31,5.77-2.13,3.56-5.28,6.45-7.46,8.32-1.65,1.24-3.06,2.45-4.42,3.62-.93.79-1.78,1.7-2.54,2.5-.3.32-.59.62-.86.9-.97,2.73-2.09,5.13-3.18,7.46-.49,1.04-.96,2.06-1.4,3.05-1.35,2.86-2.89,6.4-4.17,11.12l-.12.42-.39.2c-2.68,1.34-4.1,3.95-5.61,6.72-1.09,1.99-2.21,4.05-3.85,5.67.52.23,1.08.56,1.14,1.26.04.47-.17.88-.63,1.23-3.47,5.88-6.52,13.1-8.84,20.9-.55,1.45-1.03,2.8-1.5,4.14-.71,1.99-1.38,3.9-2.16,5.77,2.42-.72,5-.72,7.34-.72h4.82c1.54,0,3.27-.19,4.9-.39l.22-.03.21.07c1.2.4,2.33.78,3.65.96l.22.03.19.12c.21.14.41.31.63.5.28.24.63.54.84.54h.71l.22.67c.05.14.15.21.6.4.54.23,1.45.61,1.65,1.76l.14.83-.8.27c-.16.05-.32.09-.49.14-.51.12-.65.18-.75.38l-.33.65-.72-.12c-.56-.09-1.01-.14-1.42-.14s-.78.04-1.24.13c-.52.11-1.05.16-1.51.21-.47.05-.91.1-1.26.18-1.21.3-2.35.45-3.5.45-.77,0-1.56-.07-2.35-.2-1.13.22-3.78.38-5.45.38-1.7.09-3.46.51-5.16.91-1.88.45-3.82.91-5.72.91h-.04c-.12.18-.24.37-.36.55-.43.64-.84,1.25-1.07,1.83l-.81,2.03-.98-1.96c-.26-.53-.45-1.05-.6-1.62-.3.16-.59.32-.88.48-1.09.61-2.12,1.18-3.23,1.45-.47.08-.89.29-1.37.54-.39.2-.8.4-1.27.58.08.32.08.67-.06,1.04-.17.66-.93,1.26-2.24,1.29-.14.03-.27.04-.4.04Z" style="fill:#231f20;"/><path d="m426.77,256.12c1.07,0,2.18.06,3.31.16,1.21,2.61-1,3.42-1,6.03,0,2.41,1.81,4.42.2,7.44-1.81,3.01-4.42,5.63-7.23,8.04-1.61,1.21-3.01,2.41-4.42,3.62-1.41,1.21-2.61,2.61-3.62,3.62-1.41,4.02-3.22,7.44-4.62,10.65-1.61,3.42-3.01,6.83-4.22,11.25-5.22,2.61-6.03,9.45-10.25,13.06-1.41,1,2.61,1,1,2.01-3.82,6.43-6.83,13.87-9.04,21.3-1.61,4.22-2.81,8.24-4.62,12.06,2.81-1.61,6.23-1.61,9.24-1.61h4.82c1.61,0,3.42-.2,5.02-.4,1.21.4,2.41.8,3.82,1,.6.4,1.21,1.21,2.01,1.21.4,1.21,2.01.8,2.21,2.01-.6.2-1.41.2-1.81,1.01-.6-.1-1.11-.15-1.58-.15s-.93.05-1.43.15c-1.01.2-2.01.2-2.81.4-.99.25-2.06.42-3.26.42-.74,0-1.52-.07-2.37-.22-.8.2-3.62.4-5.43.4-3.81.19-7.44,1.82-10.88,1.82-.19,0-.38,0-.57-.02-.6,1.01-1.41,2.01-1.81,3.01-.4-.8-.6-1.61-.8-2.61-1.81.8-3.42,2.01-5.02,2.41-1.21.2-2.21,1.21-3.82,1.41.4.6.6,1.01.4,1.41,0,.2-.4.6-1.41.6-.11.03-.2.04-.28.04-.47,0-.32-.47-.32-.64-1.21,0-1.41-.4-2.01-.8-.2-1.21.2-2.01.4-2.81.4-.8,1.01-1.41,1.61-1.81,1.21-1.01,2.21-1.81,3.42-3.01,2.01-.4,4.22-1.01,6.43-1.61v-1.41c0-3.22.2-6.23,1-9.24,1.41-6.23,3.22-12.46,4.22-18.49,1.41-9.24,5.43-17.48,7.64-26.33-3.21-7.03-2.21-15.07-2.81-22.71-.2-2.01,2.01-1.41,2.81-2.41,1.41-6.43,7.03-8.04,10.65-11.86,2.81-.4,4.62-1.81,6.83-3.01,1.51-.82,3.11-1.46,5.2-1.46.97,0,2.03.14,3.24.45,2.65-3.15,6.94-4.38,11.96-4.38m0-1.97h0c-5.53,0-9.77,1.41-12.63,4.18-.89-.17-1.74-.25-2.58-.25-2.68,0-4.69.91-6.14,1.7-.49.27-.97.55-1.44.82-1.56.92-2.91,1.71-4.73,1.97l-.68.1-.47.5c-1.03,1.08-2.27,1.99-3.59,2.96-2.85,2.09-6.06,4.43-7.35,9-.05.02-.11.03-.16.05-3.19.95-2.97,3.11-2.9,3.81.16,2.01.2,4.16.25,6.23.11,5.5.23,11.17,2.45,16.45-.86,3.29-1.98,6.57-3.07,9.76-1.76,5.13-3.57,10.43-4.44,16.11-.64,3.83-1.6,7.72-2.62,11.83-.53,2.12-1.07,4.31-1.56,6.48-.74,2.78-1.06,5.67-1.06,9.62-1.69.45-3.35.88-4.85,1.18l-.58.12-.42.42c-.98.98-1.84,1.69-2.82,2.51l-.39.32c-.67.46-1.56,1.26-2.18,2.5l-.1.19-.05.21c-.04.14-.08.29-.12.43-.23.75-.54,1.78-.31,3.18l.14.84.71.47c.08.06.16.11.22.17.38.29.79.58,1.38.76.03.03.05.06.08.1.43.48,1.05.75,1.73.75.16,0,.33-.01.5-.05,1.73-.07,2.77-.95,3.06-1.96.09-.25.14-.49.16-.72.24-.11.47-.23.68-.33.39-.2.77-.39,1.01-.43h.08s.08-.03.08-.03c1.17-.29,2.26-.88,3.31-1.46.09.21.18.42.28.63l1.96,3.92,1.63-4.07c.19-.48.57-1.05.97-1.65.03-.04.05-.08.08-.12,1.84-.07,3.67-.51,5.45-.93,1.64-.39,3.34-.8,4.99-.89,1.48,0,4.06-.14,5.4-.37.79.12,1.58.19,2.34.19,1.22,0,2.45-.16,3.73-.48.29-.07.7-.11,1.13-.16.48-.05,1.03-.11,1.6-.22.39-.08.71-.11,1.05-.11.35,0,.75.04,1.26.12l1.43.24.56-1.11c.06-.02.13-.03.19-.05.2-.05.39-.1.57-.16l1.59-.53-.28-1.66c-.28-1.68-1.65-2.26-2.24-2.51-.04-.02-.09-.04-.13-.06l-.36-1.09h-1.24c-.1-.08-.26-.21-.37-.31-.21-.18-.45-.39-.72-.57l-.37-.25-.44-.06c-1.23-.18-2.32-.54-3.47-.92l-.42-.14-.44.06c-1.53.19-3.29.39-4.78.39h-4.82c-1.75,0-3.75,0-5.74.34.51-1.33.99-2.68,1.48-4.07.47-1.32.95-2.69,1.47-4.05l.03-.07.02-.07c2.28-7.66,5.27-14.75,8.66-20.53.81-.71.89-1.51.85-1.97-.05-.59-.3-1.02-.62-1.34,1.31-1.54,2.27-3.3,3.21-5.02,1.43-2.63,2.79-5.11,5.19-6.32l.79-.39.23-.85c1.26-4.64,2.72-7.99,4.1-10.93v-.02s.02-.02.02-.02c.43-.98.89-1.97,1.38-3.03,1.07-2.29,2.18-4.66,3.14-7.35.23-.24.47-.49.72-.76.74-.78,1.58-1.67,2.46-2.43,1.35-1.16,2.75-2.36,4.32-3.54l.05-.04.05-.04c2.24-1.92,5.46-4.88,7.64-8.52l.03-.04.02-.04c1.43-2.67.83-4.88.39-6.49-.19-.7-.36-1.31-.36-1.87,0-.63.23-1.09.54-1.72.55-1.1,1.38-2.76.28-5.14l-.47-1.03-1.13-.11c-1.21-.11-2.39-.17-3.49-.17h0Z" style="fill:#fff;"/><path d="m484.62,392.26c-2.44-6.97-3.33-15.55-2.46-23.54.7-6.44,2.89-15.37,9.3-21.87-6.43-8.16-6.21-15.29-4.8-21.79l-.42-1.1c-.04-.1-.07-.13-.07-.13-.07-.04-.35-.04-.52-.04-.51,0-1.47,0-2.09-.82h-.06c-1.31,0-2.65.17-3.93.33-1.26.16-2.55.32-3.81.32-1.77,0-3.23-.33-4.52-1.03-.24.28-.57.51-1.06.51-.06,0-.13,0-.19-.01-.13.05-.27.07-.41.07-.57,0-.9-.37-1.09-.67-.8.15-1.6.22-2.44.22-1.7,0-3.25-.31-4.75-.6-1.01-.2-1.97-.39-2.94-.48-8.28,13.89-18.52,29.94-31.76,44.25l-.52.56-.67-.36c-2.73-1.47-3.96-2.66-4.13-3.95-.16-1.26.76-2.11,1.49-2.79.43-.4.92-.85.88-1.12-.02-.19-.3-.94-2.89-2.4l-1.11-.62.89-.92c2.7-2.79,3.64-6.42,4.64-10.25,1.06-4.08,2.15-8.29,5.49-11.57-1.2-.97-2.33-2.4-3.38-3.85l-.14-.19-.04-.23c-.12-.72.09-1.27.24-1.67.18-.48.27-.72-.13-1.43l-.42-.75.69-.51c.38-.28.74-.73,1.13-1.2.27-.33.55-.68.87-1.01.25-.48.56-.96.89-1.45.22-.34.45-.69.68-1.08l.06-.08c.45-.61.88-1.24,1.31-1.88.71-1.06,1.45-2.16,2.36-3.2l.21-.24.31-.07c1.65-.39,3.01-1.12,4.44-1.89,2.06-1.1,4.18-2.24,7.2-2.36h.09s.09,0,.09,0c1.49.2,2.97.35,4.4.5,1.21.13,2.43.25,3.67.4,1.42-3.82,2.6-7.84,3.73-11.74,3.19-10.94,6.49-22.24,15.56-30.13.48-.42,1.02-.88,1.59-1.36,3.66-3.09,8.68-7.32,9.02-11.6.13-1.61-.42-3.09-1.67-4.55l-.8-.93,1.09-.58c6.66-3.54,8.25-8.43,9.93-13.61,1.33-4.09,2.7-8.32,6.53-12.17-.04-.14-.08-.29-.11-.43-.19-.7-.38-1.43-.39-2.21-.49-4.51.36-8.81,2.53-12.79,2.6-4.34,6.5-7.29,10.72-8.13l.77-.16.32.72c3,6.81,3.87,11.56,4.3,14.95.42,3.57,0,5.89-.41,8.14l-.12.46c-1.15,4.4-2.15,8.19,4.19,13.26l.75.6-.57.76c-.51.68-1.08,1.44-1.48,2.03l-.56,2.24c-.34,1.55-.54,3.16-.72,4.59l-.06.51c-.56,3.2-1.86,6.51-7.09,7.51,1.86,5.78.36,10.24-.97,14.21-.89,2.65-1.73,5.15-1.58,7.85.88,8.64-1.19,16.83-3.19,24.75-1.18,4.69-2.4,9.53-2.98,14.38,2.04,1.34,3.2,3.33,3.74,6.37v.09s.01.09.01.09c0,.51.02,1.08.04,1.66.1,3.11.08,5.06-1.01,5.94l-.61.49-.61-.49c-.54-.43-.91-1.12-1.23-1.92h0c4.33,22.02-5.51,40.73-15.03,58.82-.79,1.49-1.57,2.99-2.35,4.48l-1.05,2.02-.75-2.15Zm-44.55-67.11c-.13,1-.63,1.66-1.03,2.2-.5.66-.8,1.06-.56,2.06l.06.24c1.76-.4,3.45-.86,4.41-1.6,2.44-2.01,4.51-4.26,6.54-7.12-3.24.7-6.28,2.07-9.41,4.22Zm48.35-11.26c.32,0,.65.02,1,.05.06,0,.11,0,.17.01.63-2.99,1.18-6.72.62-10.29-.31-1.78-1.49-3.95-2.63-6.04-1.7-3.11-3.45-6.33-2.78-9.02.43-1.67,1.11-3.16,1.75-4.61,1.2-2.67,2.33-5.19,1.84-8.48-.22-1.9-.27-3.81-.13-5.72-5.99,9.89-11.67,19.96-17.19,29.74-2.01,3.56-4.02,7.12-6.05,10.69,2.88.67,6.01.74,9.32.81,2.2.05,4.46.1,6.66.34.86.04,1.23.78,1.42,1.15,0,.02.02.04.03.06.34,0,.65-.01.94-.02.32,0,.6-.02.87-.02,1.38,0,2.36.22,3.64,1.38.17-.02.34-.02.54-.02Z" style="fill:#231f20;"/><path d="m513.08,201.02c3.01,6.83,3.82,11.45,4.22,14.67.4,3.42,0,5.63-.4,7.84-1.21,4.62-2.61,9.04,4.42,14.67-.6.8-1.21,1.61-1.61,2.21-.2.8-.4,1.61-.6,2.41-.4,1.81-.6,3.62-.8,5.22-.6,3.42-2.01,6.23-7.44,6.83,3.82,9.85-2.61,15.47-2.21,22.91,1.41,13.87-4.82,26.33-6.23,39.59,1.81,1,3.21,2.61,3.82,6.03,0,2.41.4,6.03-.6,6.83-1-.8-1.41-3.42-2.21-5.02-.2,0-.6,0-1.21-.2.2,1.41.4,2.81.6,4.22,4.62,23.51-7.03,43.01-17.28,62.7-4.42-12.66-4.42-33.96,7.23-45.02-6.83-8.24-6.63-15.27-5.02-22.31.2-.4.2-.8.4-1.21-.12-.06-.24-.08-.35-.08-.27,0-.51.14-.66.28-.6-1.61-2.41,0-3.01-1.61-.22,0-.43-.01-.65-.01-2.69,0-5.3.65-7.74.65-1.73,0-3.37-.33-4.88-1.44-.16.33-.33.91-.7.91-.09,0-.19-.03-.3-.11-.12.12-.22.17-.3.17-.32,0-.39-.77-.71-.77-.99.24-1.93.33-2.82.33-2.93,0-5.46-.98-8.23-1.13-9.45,15.88-19.49,31.15-31.95,44.61-10.05-5.43,5.02-4.82-4.62-10.25,6.03-6.23,3.82-16.28,10.65-22.31.2,0,.4-.2.6-.2-1.41-.6-2.81-2.21-4.42-4.42-.2-1.21,1-1.61,0-3.42.8-.6,1.41-1.61,2.21-2.41.4-.8,1.01-1.61,1.61-2.61,1.21-1.61,2.21-3.42,3.62-5.02,4.22-1.01,6.63-4.02,11.46-4.22,3.01.4,5.83.6,8.84,1,5.63-14.67,7.03-31.55,19.29-42.2,4.82-4.22,15.27-11.66,9.04-18.89,12.46-6.63,8.04-17.69,17.08-26.33-.2-1-.6-2.01-.6-3.01-.4-3.62,0-7.84,2.41-12.26,2.41-4.02,6.03-6.83,10.05-7.64m-49.84,110.33c.4-.2,1-.2,1.41-.2,5.02,1.21,10.85.6,16.28,1.21.6,0,.6,1.21,1.21,1.21.87,0,1.54-.04,2.11-.04,1.29,0,2.06.19,3.31,1.45.27-.07.56-.09.86-.09.61,0,1.28.09,1.95.09.8-3.62,1.41-7.64.8-11.46-.8-4.62-6.43-10.65-5.43-14.67,1.21-4.62,4.42-8.04,3.62-13.46-.4-3.42-.2-6.83.6-10.25-9.45,15.27-17.89,30.75-26.73,46.22m-11.66,8.24c-5.02.6-9.04,2.61-12.46,5.02,0,2.21-2.21,2.41-1.61,5.02-.05,0-.1-.01-.15-.01-.91,0-.85,1.34-1.26,1.34-.13,0-.32-.14-.6-.53,0,.4-.2.6-.2,1,2.81-.8,6.43-1.21,8.24-2.61,3.42-2.81,5.83-5.83,8.04-9.24m62.66-120.81l-1.55.31c-4.49.9-8.63,4.02-11.35,8.55l-.02.03-.02.04c-2.26,4.15-3.15,8.63-2.65,13.32.02.84.21,1.61.39,2.29-3.7,3.92-5.12,8.28-6.38,12.15-1.69,5.2-3.15,9.69-9.46,13.04l-2.17,1.16,1.61,1.86c1.07,1.25,1.54,2.5,1.44,3.83-.31,3.87-5.34,8.11-8.67,10.92-.58.49-1.12.95-1.61,1.37-9.29,8.07-12.63,19.52-15.86,30.59-1.06,3.63-2.15,7.38-3.44,10.95-.99-.12-1.97-.22-2.92-.31-1.42-.15-2.89-.3-4.36-.5l-.17-.02h-.17c-3.24.14-5.57,1.39-7.62,2.48-1.38.74-2.68,1.43-4.21,1.8l-.61.15-.41.47c-.95,1.08-1.7,2.21-2.43,3.3-.43.65-.84,1.26-1.28,1.84l-.06.08-.05.09c-.23.38-.45.72-.66,1.05-.31.48-.61.93-.87,1.41-.31.33-.58.66-.82.96-.35.42-.67.82-.95,1.04l-1.37,1.03.83,1.5c.14.26.16.37.16.37,0,0-.06.14-.09.24-.17.45-.45,1.19-.29,2.18l.08.46.27.38c.87,1.19,1.78,2.37,2.76,3.32-2.97,3.33-4.01,7.35-5.03,11.26-.96,3.71-1.87,7.21-4.39,9.82l-1.77,1.83,2.22,1.25c1.35.76,1.96,1.27,2.23,1.55-.13.13-.29.28-.41.39-.76.7-2.02,1.86-1.8,3.63.21,1.65,1.59,3.05,4.63,4.69l1.34.72,1.04-1.12c13.13-14.19,23.31-30.06,31.56-43.87.73.1,1.47.25,2.23.4,1.55.31,3.15.62,4.94.62.7,0,1.38-.05,2.05-.15.41.39.91.59,1.48.59.15,0,.32-.02.51-.06.03,0,.06,0,.09,0,.48,0,.87-.13,1.19-.32,1.28.58,2.71.85,4.39.85,1.31,0,2.64-.17,3.93-.33,1.14-.14,2.31-.29,3.45-.32.81.73,1.82.8,2.36.81l.14.37c-1.36,6.48-1.52,13.56,4.53,21.64-6.14,6.64-8.28,15.44-8.98,21.84-.89,8.13.03,16.87,2.51,23.97l1.5,4.3,2.1-4.04c.78-1.49,1.56-2.99,2.35-4.48,9.07-17.23,18.43-35.02,15.72-55.83l.28.23,1.23-.98c1.56-1.25,1.47-3.79,1.38-6.74-.02-.57-.04-1.13-.04-1.63v-.17l-.03-.17c-.54-3.03-1.71-5.19-3.66-6.67.59-4.59,1.75-9.2,2.88-13.67,2.02-7.99,4.1-16.25,3.22-25.09-.12-2.5.68-4.9,1.53-7.44,1.3-3.88,2.76-8.22,1.28-13.8,4.97-1.36,6.26-4.92,6.81-8.01v-.05s.01-.05.01-.05l.06-.52c.18-1.46.37-2.98.7-4.49l.28-1.11.23-.93c.38-.54.89-1.23,1.36-1.85l1.15-1.53-1.49-1.19c-5.84-4.67-5-7.85-3.85-12.24l.1-.39.02-.07v-.07c.43-2.32.87-4.71.43-8.42-.43-3.46-1.32-8.31-4.37-15.23l-.64-1.45h0Zm-47.7,110.75c1.81-3.19,3.62-6.38,5.38-9.5,4.94-8.75,10.01-17.73,15.31-26.6.03.73.09,1.46.18,2.19v.03s0,.03,0,.03c.45,3-.58,5.29-1.77,7.93-.67,1.48-1.35,3.01-1.81,4.75-.77,3.08,1.08,6.47,2.86,9.75,1.1,2.03,2.25,4.12,2.53,5.75.49,3.07.09,6.32-.45,9.07-.12,0-.24,0-.37,0-.07,0-.13,0-.2,0-1.36-1.12-2.53-1.36-3.98-1.36-.27,0-.57,0-.9.02-.11,0-.22,0-.34,0-.33-.5-.93-1.14-1.94-1.19-2.23-.24-4.51-.29-6.72-.34-2.75-.06-5.38-.12-7.81-.52h0Zm-25.58,16.21c1.99-1.33,3.95-2.34,5.95-3.05-1.43,1.74-2.92,3.23-4.59,4.61-.6.46-1.66.81-2.82,1.12.07-.12.18-.27.33-.47.38-.5.9-1.2,1.14-2.21h0Z" style="fill:#fff;"/><path d="m565.62,386.55c-2.42-1.49-1.28-4.73-.28-7.59.44-1.25.89-2.53,1.02-3.55,0-4.32.81-9.04,2.38-14.04-.15-.51-.42-.97-.63-1.32-.06-.1-.11-.18-.15-.26-2.35-2.41-3.31-5.42-4.15-8.08-.12-.38-.24-.75-.36-1.12-6.75-9.77-11.68-25.53-11.95-33.78-1.62-3.7-2.79-8.36-3.33-12.06l-.53,1.78-.51.15c-5.41,1.57-7.36,6.23-9.42,11.16l-.43,1.03-.05.08c-5.84,8.64-8.34,18.47-6.7,26.31.22.66.06,1.12-.13,1.39-.46.69-1.33.72-2.03.74-.05,0-.12,0-.18,0,.55.97,1.33,1.76,2.28,2.3l1.03.59-.77.9c-.23.27-.29.85-.34,1.42-.1,1.02-.27,2.79-2.14,3.24,1.62,5.96,1.5,11.93-.36,16.94-2.41,6.75-7.8,11.21-15.59,12.88l-.27.06-.26-.09c-1.52-.53-2.45-1.24-2.86-2.18-.55-1.29.03-2.56.54-3.69.38-.83.73-1.62.53-2.12-1.96-4.28-.68-8.47.36-11.84.19-.63.38-1.24.54-1.83-2.73-14.19-.82-36.04,4.04-46.21.02-4.85.57-9.13,1.65-12.72.98-3.93,2.14-7.2,3.28-9.27-1.02-3.37.56-6.86,2.09-10.24.81-1.78,1.64-3.61,2.04-5.35l.13-.57.57-.16c1.72-.47,2.38-2.3,3.15-4.41l.13-.35.33-.18c2.3-1.24,3.66-4.55,4.98-7.74,1.18-3.55,2.83-7.59,5.9-10.22.79-.72,1.8-1.33,2.86-1.97,1.95-1.18,3.97-2.4,4.92-4.52l.45-1.02.96.58c3.13,1.89,4.66,3.58,6.02,5.07,1.64,1.79,3.05,3.34,6.94,5.13l.77.36-.24.82c-.68,2.32-.89,5.01-1.09,7.61-.08,1.11-.17,2.21-.29,3.28l-.04.34-.13.12c.55,2.01.56,4.38.03,6.73,1.61,3.21,1.86,7.02,2.13,11.05.18,2.71.37,5.52,1,8.14l.1.4-.21.35c-2.01,3.29-1.46,7.47-.89,11.89l.03.21v.08c-.15,4.94.2,14.14,4.26,20.33.57.71.52,1.5-.23,2.29.19.21.52.35,1.15.59l1.04.41v.67c0,.34.12.74.24,1.16.21.72.51,1.73.03,2.65,1.24,1.58,2.26,3.24,3.07,5.03,3.79-18.65,10.81-40.67,16.86-52.6,1.39-5.31,3.65-11.03,6.04-16.9,2.54-6.24,4.58-10.46,6.22-12.88.89-4.17,3.56-9.11,6.14-13.89,1.23-2.28,2.51-4.64,3.54-6.84l.11-.24.21-.15c1.71-1.2,3.22-3.72,4.82-6.39l.39-.65.09-.09c2.06-2.06,4.5-5.89,7.25-11.4,2.42-4.14,5.61-9.41,9.16-13.84l.07-.08c.88-.88,1.81-1.7,2.8-2.57,2.21-1.95,4.5-3.96,6.53-6.94l.55-.8.81.54c1.76,1.17,2.13,2.8,2.45,4.23.32,1.42.6,2.64,2.14,3.58l.83.51-.49.83c-1.51,2.55-2.86,5.26-4.29,8.13-1,2.01-2.03,4.08-3.13,6.1-.58,1.16-1.2,2.39-2.02,3.45l-.23.55c-.48,1.14-.92,2.23-1.82,3.33-1.54,2.63-3.15,4.73-4.79,6.23-.97,2.67-2.09,5.13-3.57,8.29l-2.24,4.08c-.2.41-.48.88-.77,1.38-.5.86-1.02,1.75-1.38,2.71l-.03.07-.03.06c-.58,1.05-1.16,2.1-1.75,3.15-2.62,4.7-5.33,9.55-7.45,14.46l-.1.22-.19.15c-4.21,3.37-7.53,9.94-10.73,16.29-.49.97-.98,1.93-1.47,2.89-2.38,3.93-4.32,8.31-6.36,12.94-.86,1.95-1.75,3.97-2.67,5.92-2.62,5.99-4.68,12.86-5.95,19.86-.13,1.49-.81,1.93-1.43,2.22-.23.11-.29.13-.39.61-.34,1.38,0,2.59.37,3.71l.13.39-.18.36c-.31.62-.57,1.46-.84,2.34-.51,1.65-1.04,3.35-2.12,4.22-.89,8.34-2.82,17.02-5.43,24.48-2.33,8.92-6.12,15.9-10.93,20.11l-.55.48-.62-.38Z" style="fill:#231f20;"/><path d="m643.11,199.41c3.01,2.01,1,5.63,4.62,7.84-2.61,4.42-4.82,9.45-7.44,14.27-.6,1.21-1.21,2.41-2.01,3.42-.6,1.41-1.01,2.61-2.01,3.82-1.41,2.41-3.01,4.62-4.82,6.23-1.01,2.81-2.21,5.43-3.62,8.44l-2.21,4.02c-.6,1.21-1.61,2.61-2.21,4.22-3.22,5.83-6.63,11.66-9.24,17.69-5.02,4.02-8.64,12.06-12.46,19.49-3.42,5.63-6.03,12.46-9.04,18.89-2.81,6.43-4.82,13.46-6.03,20.1-.2,2.21-1.41.8-1.81,2.81-.4,1.61,0,3.01.4,4.22-1.01,2.01-1.41,5.63-3.01,6.43-.8,7.84-2.61,16.68-5.43,24.72-2.21,8.44-5.83,15.47-10.65,19.69-2.61-1.61.8-6.83,1.21-10.25,0-4.82,1-9.65,2.41-14.07-.2-1-.8-1.81-1.01-2.21-2.61-2.61-3.42-6.03-4.42-9.04-6.43-9.24-11.66-25.12-11.86-33.56-2.41-5.43-3.82-13.06-3.62-16.28q0-.2-.2-.6l-1.81,6.03c-6.23,1.81-8.24,7.44-10.45,12.66-5.02,7.44-8.84,17.69-6.83,27.13.6,1.61-2.81.2-2.61,1.61.6,1.41,1.61,2.61,3.01,3.42-1.17,1.37.31,4.43-2.72,4.43-.09,0-.19,0-.29,0,1.81,5.83,2.01,12.06,0,17.48-2.01,5.63-6.43,10.45-14.87,12.26-5.22-1.81-.2-5.02-1.21-7.44-2.21-4.82,0-9.45,1.01-13.26-2.81-14.27-.8-36.17,4.02-46.02,0-4.22.4-8.64,1.61-12.66,1-4.02,2.21-7.44,3.42-9.45-1.81-4.82,2.81-10.25,4.02-15.47,2.21-.6,3.01-2.81,3.82-5.02,2.61-1.41,4.02-4.82,5.43-8.24,1.21-3.62,2.81-7.44,5.63-9.85,2.21-2.01,6.43-3.22,8.04-6.83,6.63,4.02,5.63,6.83,13.06,10.25-1,3.42-1,7.44-1.41,11.05q-.2.2-.2.6c.6,2.01.6,4.42,0,6.83,2.81,5.22,1.61,12.66,3.22,19.29-2.21,3.62-1.61,8.04-1.01,12.66-.2,6.63.6,15.07,4.42,20.9.8,1-1.01,1.21-.4,2.01.4.8,1.21,1,2.21,1.41,0,1.41,1.21,2.81,0,3.82,2.01,2.41,3.62,5.22,4.62,8.64,3.62-19.49,11.25-43.61,17.48-55.87,1.41-5.43,3.82-11.46,6.03-16.88,2.21-5.43,4.42-10.25,6.23-12.86,1.21-6.03,6.43-13.87,9.65-20.7,2.01-1.41,3.62-4.22,5.43-7.23,2.41-2.41,5.02-6.83,7.44-11.66,2.81-4.82,5.83-9.65,9.04-13.67,2.81-2.81,6.43-5.22,9.45-9.65m-.53-2.72l-1.1,1.61c-1.96,2.87-4.2,4.85-6.37,6.75-1,.88-1.94,1.71-2.84,2.61l-.08.08-.07.08c-3.59,4.49-6.81,9.79-9.21,13.9l-.03.05-.03.06c-2.71,5.41-5.08,9.16-7.07,11.15l-.17.17-.12.21-.33.55c-1.54,2.57-3,5.01-4.54,6.09l-.43.3-.22.47c-1.02,2.17-2.29,4.52-3.52,6.79-2.58,4.77-5.24,9.69-6.19,13.96-1.66,2.51-3.69,6.74-6.21,12.9-2.39,5.87-4.65,11.58-6.06,16.92-5.78,11.45-12.43,32-16.33,50.06-.47-.79-.99-1.56-1.55-2.31.29-1.08-.02-2.14-.21-2.77-.1-.33-.2-.68-.2-.88v-1.33l-1.24-.49c-.15-.06-.3-.12-.44-.17-.03-.01-.06-.02-.1-.04.45-1.14-.09-2.1-.39-2.51-3.87-5.96-4.21-14.9-4.07-19.71v-.16s-.02-.16-.02-.16l-.02-.13c-.55-4.25-1.08-8.26.75-11.25l.43-.7-.19-.79c-.62-2.54-.8-5.3-.98-7.97-.25-3.83-.51-7.77-2.08-11.11.45-2.2.46-4.41.02-6.36l.07-.6c.12-1.09.21-2.22.29-3.31.19-2.55.4-5.18,1.05-7.4l.48-1.63-1.55-.71c-3.7-1.7-5.06-3.18-6.62-4.9-1.4-1.54-2.99-3.28-6.24-5.24l-1.91-1.16-.91,2.04c-.82,1.84-2.7,2.97-4.52,4.07-1.05.63-2.14,1.29-3.02,2.08-3.24,2.79-5,7.14-6.17,10.64-1.25,3.02-2.54,6.13-4.51,7.19l-.66.36-.26.7c-.78,2.15-1.34,3.49-2.49,3.8l-1.13.31-.26,1.15c-.38,1.64-1.16,3.35-1.98,5.17-1.55,3.42-3.15,6.95-2.25,10.53-1.4,2.67-2.49,6.37-3.19,9.15-1.08,3.62-1.64,7.9-1.68,12.73-4.84,10.36-6.75,32.12-4.07,46.39-.14.51-.3,1.03-.47,1.59-1.08,3.5-2.42,7.86-.34,12.48,0,.26-.31.94-.5,1.36-.54,1.18-1.27,2.8-.55,4.48.52,1.21,1.65,2.1,3.44,2.72l.52.18.54-.12c8.13-1.74,13.78-6.42,16.31-13.52,1.83-4.94,2.03-10.79.6-16.65,1.67-.92,1.86-2.88,1.95-3.76.03-.3.07-.75.14-.91l1.52-1.77-2.07-1.18c-.35-.2-.67-.44-.95-.71.45-.16.89-.45,1.22-.94.25-.37.6-1.13.26-2.19-1.57-7.57.88-17.1,6.56-25.51l.11-.16.07-.18.4-.94c1.97-4.71,3.83-9.15,8.79-10.59l.27-.08c.63,3.14,1.61,6.59,2.86,9.48.34,8.41,5.28,24.16,12.03,34.01.1.32.21.65.31.97.87,2.73,1.85,5.82,4.3,8.37.03.05.07.11.1.17.15.25.32.53.44.83-1.53,4.96-2.31,9.65-2.32,13.96-.13.91-.55,2.12-.96,3.3-1.07,3.05-2.4,6.86.69,8.76l1.24.76,1.09-.95c4.95-4.33,8.83-11.45,11.24-20.6,2.58-7.4,4.5-15.98,5.41-24.25,1.09-1.08,1.61-2.77,2.12-4.41.25-.8.51-1.63.78-2.19l.36-.73-.26-.77c-.34-1.03-.63-2.04-.36-3.12v-.05s.02-.04.02-.04c.82-.41,1.64-1.12,1.83-2.94,1.26-6.89,3.29-13.65,5.87-19.56.92-1.96,1.81-3.97,2.67-5.92,2.03-4.6,3.95-8.95,6.27-12.76l.04-.06.03-.06c.49-.96.98-1.92,1.47-2.89,3.16-6.26,6.43-12.73,10.47-15.97l.38-.31.19-.45c2.1-4.86,4.8-9.69,7.41-14.37.59-1.05,1.17-2.1,1.75-3.15l.07-.13.05-.13c.33-.88.83-1.74,1.31-2.56.29-.49.56-.96.8-1.43l2.19-3.99.03-.06.03-.06c1.44-3.09,2.56-5.53,3.52-8.15,1.63-1.54,3.23-3.63,4.76-6.23.96-1.19,1.45-2.37,1.92-3.51.06-.14.12-.28.18-.43.84-1.1,1.45-2.33,2.04-3.51,1.1-2.03,2.13-4.1,3.13-6.11,1.42-2.85,2.77-5.55,4.25-8.07l.99-1.67-1.65-1.01c-1.13-.69-1.36-1.49-1.69-2.96-.33-1.45-.78-3.44-2.87-4.84l-1.62-1.08h0Z" style="fill:#fff;"/><path d="m624.01,384.68c-1.99,0-3.87,0-5.74-.21h-.1s-.1-.04-.1-.04c-.65-.22-1.33-.39-1.98-.55-1.12-.28-2.28-.57-3.37-1.11l-.23-.12-.15-.22c-.18-.27-.73-.67-1.26-1.06-.3-.22-.63-.46-.95-.72l-.08-.07c-.55-.55-1.18-.97-1.84-1.42-.43-.29-.87-.59-1.29-.92l-.18-.15-.1-.21c-.42-.91-.96-1.9-1.52-2.95-1.03-1.9-2.2-4.06-3.13-6.57-1.35-4.27-1.65-8.77-.84-12.41v-.07s.04-.06.04-.06c.41-1.1.83-2.03,1.23-2.92.2-.44.4-.88.59-1.34.23-.61.58-1.21.91-1.79.52-.9,1.02-1.75,1.02-2.65v-1.23l1.2.27c1.89.42,2.8,1.23,3.6,1.95.84.75,1.51,1.35,3.47,1.44l1.2.06-.29,1.16c-.27,1.07-.23,2.06-.2,3.1.01.31.02.61.02.91.03.07.06.14.09.21.19.46.44,1.07.36,1.83.24.54.32.95.41,1.37.03.16.07.34.12.54.22,1.04.5,1.92.76,2.77.4,1.3.78,2.53.86,3.96.2.13.4.26.59.38,1.69,1.1,3.02,1.97,4.73,2.43l.07.02.07.03c.63.28,1.39.43,2.2.43,1.46,0,3.03-.48,4.53-1.38l.42-.25.45.18c.44.18.9.26,1.4.26.33,0,.68-.04,1.06-.11,1.09-.18,1.8-.54,2.97-1.12,2.35-.98,4.25-2.5,6.26-4.11,1.29-.92,3.08-2.28,4.25-3.84,1.32-1.76,2.07-3.35,2.22-4.74v-.08s.03-.08.03-.08c.78-2.81-.21-6.23-2.67-9.17-.37-.18-.61-.44-.72-.78-.18-.54.06-1,.25-1.29-.33-.25-.77-.37-1.34-.37h-.66l-.25-.62c-.06-.16-.44-.52-.69-.77-.59-.58-1.57-1.54-1.44-2.63-.78-.5-1.59-.99-2.41-1.5-2.53-1.56-5.15-3.17-7.42-4.99-2.47-.41-4.77-1.58-7.02-3.57-1.25-.85-2.33-1.92-3.37-3.36l-1.42-1.42-1.16-1.75c-3.3-2.46-7.74-6.68-10.43-12.96-2.7-5.39-3.91-12.4-3.29-19.17.2-6.72,2.12-13.48,5.55-19.49,2.87-5.55,6.27-9.96,10.36-13.43,3.83-5.91,9.86-11.54,16.14-15.07,5.76-3.77,11.69-5.43,15.17-5.73,1.58-1.27,3.72-2.29,5.21-2.96,1.31-.44,2.35-.65,3.34-.85.75-.28,1.56-.38,2.27-.47.35-.04.7-.09,1.03-.15,3.03-.47,5.51-.67,8.08-.67,2.93,0,6.05.28,9.56.87l.49.08.22.45c.19.38.59.67,1.15,1.08.22.16.46.34.71.54.61.32,1.21.72,1.95,1.23.26.17.53.36.83.56,2.23,1.12,4.49,2.85,6.07,4.62l.12.13.06.17c1.15,2.99,2.08,5.69,2.84,9.12.5,1.37.61,2.8.73,4.45.03.44.07.9.11,1.37v3.02s-.03.12-.03.12c-.08.32-.13.71-.17,1.09-.05.45-.1.89-.21,1.27-.6,6.59-2.93,13.1-6.41,17.87-1.4,1.8-3.17,3.2-5.04,4.68-2.01,1.59-4.08,3.22-5.61,5.37l-.53.74-.78-.47c-2.92-1.75-4.15-3.48-5.24-5-1.29-1.8-2.4-3.35-6.1-5l-.96-.43.49-.93c1.8-3.42,2.26-7.64,2.63-11.03l.07-.62c0-1.77,0-3.59.4-4.92,0-.05,0-.1,0-.15-.44-.07-1.18-.15-2.14-.15-.89,0-1.75.07-2.54.22-.62.1-1.33.2-2.04.31-.66.09-1.32.19-1.89.28-.33.13-.7.26-1.08.39-.76.27-1.62.57-2.36.94l-.55.27-.49-.37c-1.4-1.07-3.07-1.61-4.96-1.61-3.28,0-7.31,1.64-11.34,4.63l-.26.19h-.32c-.1,0-.4.19-.58.29-.25.15-.53.32-.84.43-.43.22-.79.43-1.1.61-.21.12-.4.23-.56.32-.36.28-.74.54-1.13.81-.7.47-1.42.96-2.13,1.67l-.07.07c-2.38,1.95-4.34,4.25-5.37,6.31l-.05.09c-3.07,4.8-3.98,10.4-2.37,14.65.39.53.39,1,.32,1.31-.19.81-.97,1.15-1.6,1.42-.11.05-.25.11-.38.17.43.66,1.09.95,2.55,1.5l.64.24v.68c0,.71.2,1.57.5,2.17l.05.1.03.11c.33,1.31-.25,2.27-.96,2.97,1.43,1.63,2.89,3.14,4.31,4.61,5.16,5.34,10.05,10.38,12.43,19.97,5.21,3.28,10.91,7.49,14.28,13.83,2.36,4.08,3.14,9.17,2.1,13.93-.64,4.73-3.07,8.88-4.98,11.02-2.28,3.95-5.79,7.9-9.65,10.85-.41.29-.79.56-1.15.82-1.6,1.14-3.12,2.23-4.67,2.92-1.42.63-2.73,1.14-3.69,1.52l-.64.25c-.95.72-2.22,1.25-3.46,1.77l-.67.28c-1.6.6-3.46,1.05-5.29,1.28h-.06s-.06,0-.06,0Z" style="fill:#231f20;"/><path d="m670.89,231.32c2.76,0,5.78.25,9.4.85.4.8,1.21,1.21,2.21,2.01.8.4,1.61,1,2.81,1.81,2.01,1,4.22,2.61,5.83,4.42,1.01,2.61,2.01,5.43,2.81,9.04.6,1.61.6,3.42.8,5.63v2.81c-.2.8-.2,1.81-.4,2.41-.6,6.83-3.01,13.06-6.23,17.48-2.81,3.62-7.64,5.83-10.65,10.05-6.03-3.62-4.22-6.83-11.45-10.05,2.01-3.82,2.41-8.44,2.81-12.06,0-1.81,0-3.62.4-4.82,0-.4,0-.6.2-.8l.2-.2q0-.2.2-.2c.2,0,.6-.4,1-.8-1,.2-1.81.6-2.01.8-.58-.12-1.56-.23-2.71-.23-.84,0-1.78.06-2.71.23-1.21.2-2.81.4-4.02.6-1,.4-2.41.8-3.62,1.41-1.67-1.27-3.57-1.81-5.56-1.81-3.97,0-8.31,2.14-11.92,4.82-.6,0-1.21.6-1.81.8-.8.4-1.41.8-1.81,1-1.01.8-2.21,1.41-3.42,2.61-2.21,1.81-4.42,4.22-5.63,6.63-3.21,5.02-4.22,11.05-2.41,15.68,1.21,1.41-2.61,1.21-1.81,2.61.6,1.21,1.61,1.61,3.21,2.21,0,.8.2,1.81.6,2.61.2.8,0,1.61-1.41,2.61,6.83,8.04,14.27,12.66,17.28,25.32,4.82,3.01,10.85,7.23,14.27,13.67,2.21,3.82,3.01,8.64,2.01,13.26-.6,4.42-2.81,8.44-4.82,10.65-2.41,4.22-6.03,8.04-9.45,10.65-2.01,1.41-3.82,2.81-5.63,3.62-1.81.8-3.42,1.41-4.42,1.81-1.01.8-2.61,1.41-4.02,2.01-1.61.6-3.42,1-5.02,1.21-2.01,0-3.82,0-5.63-.2-1.81-.6-3.62-.8-5.23-1.61-.4-.6-1.41-1.21-2.41-2.01-1.01-1.01-2.21-1.61-3.22-2.41-1.21-2.61-3.22-5.63-4.62-9.45-1.21-3.82-1.61-8.24-.8-11.86.6-1.61,1.21-2.81,1.81-4.22.6-1.61,2.01-3.01,2.01-4.82,3.62.8,3.02,3.22,7.23,3.42-.4,1.61-.2,3.02-.2,4.42.2.6.6,1.21.4,2.01.4.8.4,1.21.6,2.01.6,2.81,1.61,4.62,1.61,7.03,2.21,1.41,3.82,2.61,6.03,3.22.72.32,1.61.51,2.6.51,1.49,0,3.23-.43,5.04-1.52.59.24,1.18.33,1.77.33.42,0,.83-.05,1.25-.13,1.21-.2,2.01-.6,3.21-1.21,2.41-1,4.42-2.61,6.43-4.22,1.41-1,3.22-2.41,4.42-4.02,1.21-1.61,2.21-3.42,2.41-5.22,1.01-3.62-.6-7.44-3.01-10.25-1.21-.4.8-1.21-.2-1.81-.6-.6-1.41-.8-2.21-.8-.4-1-2.81-2.21-1.81-3.42-3.42-2.21-7.44-4.42-10.65-7.03-2.81-.4-5.02-1.81-6.83-3.42-1.21-.8-2.21-1.81-3.22-3.22-.4-.4-1-1-1.41-1.41-.4-.6-.8-1.21-1.21-1.81-3.82-2.81-7.84-7.03-10.25-12.66-2.61-5.23-3.82-12.06-3.21-18.69.2-6.83,2.21-13.46,5.43-19.09,3.01-5.83,6.43-10.05,10.25-13.26,3.62-5.63,9.45-11.25,15.88-14.87,5.83-3.82,11.86-5.43,15.07-5.63,1.41-1.21,3.42-2.21,5.23-3.01,1.21-.4,2.21-.6,3.21-.8,1-.4,2.21-.4,3.22-.6,2.61-.4,5.12-.65,7.89-.65m-2.06,28.39v.15-.15m2.06-30.35c-2.62,0-5.15.21-8.19.68h-.04s-.04.02-.04.02c-.27.05-.6.1-.95.14-.75.09-1.59.19-2.42.5-1,.2-2.04.42-3.29.83l-.09.03-.09.04c-1.48.66-3.55,1.64-5.19,2.9-3.62.37-9.55,2.08-15.33,5.86-6.35,3.59-12.44,9.27-16.35,15.24-4.13,3.53-7.56,8-10.48,13.64-3.49,6.13-5.45,13.01-5.66,19.91-.62,6.91.62,14.06,3.39,19.64,2.75,6.37,7.21,10.67,10.59,13.21l.43.64.59.88.11.16.14.14.7.7.59.59c1.08,1.49,2.2,2.6,3.51,3.5,2.3,2.02,4.67,3.24,7.21,3.71,2.27,1.79,4.84,3.37,7.33,4.9.67.41,1.32.81,1.95,1.21.19,1.28,1.26,2.33,1.72,2.78.16.16.4.39.5.51l.46,1.15h1.33s.04,0,.06,0c-.04.3-.02.63.1.99.13.39.41.88,1.01,1.24,2.16,2.66,3.04,5.68,2.36,8.14l-.04.15-.02.16c-.13,1.21-.82,2.64-2.03,4.26-1.21,1.61-3.3,3.11-3.99,3.6l-.04.03-.04.03c-1.95,1.56-3.8,3.04-5.96,3.94l-.06.03-.06.03c-1.12.56-1.74.87-2.66,1.02h-.03s-.03.01-.03.01c-.32.06-.6.09-.86.09-.37,0-.71-.06-1.04-.19l-.91-.36-.84.5c-1.71,1.02-3.13,1.24-4.02,1.24-.67,0-1.29-.12-1.8-.34l-.14-.06-.14-.04c-1.56-.43-2.84-1.26-4.45-2.31-.06-.04-.12-.08-.18-.12-.14-1.32-.49-2.48-.87-3.69-.26-.83-.52-1.68-.73-2.65v-.03s-.01-.03-.01-.03c-.05-.19-.08-.35-.11-.5-.08-.4-.17-.81-.38-1.33.03-.88-.25-1.58-.44-2.04,0-.01-.01-.03-.02-.04,0-.25-.01-.5-.02-.75-.03-.97-.07-1.89.17-2.82l.58-2.33-2.4-.11c-1.61-.08-2.06-.47-2.86-1.19-.8-.72-1.9-1.7-4.04-2.18l-2.39-.53v2.45c0,.63-.41,1.33-.88,2.15-.35.6-.71,1.22-.98,1.94-.19.44-.38.86-.57,1.28-.41.91-.83,1.85-1.26,2.98l-.05.13-.03.13c-.84,3.8-.54,8.49.85,12.88v.04s.03.04.03.04c.95,2.57,2.14,4.77,3.19,6.7.56,1.03,1.09,2,1.49,2.89l.19.42.36.29c.45.36.91.67,1.36.97.62.42,1.21.81,1.7,1.3l.08.08.08.07c.33.27.67.51.98.75.38.28.9.67,1.03.83l.29.43.46.22c1.19.6,2.4.9,3.58,1.19.66.17,1.29.32,1.91.53l.2.07.21.02c1.92.21,3.82.21,5.84.21h.12l.12-.02c1.9-.24,3.84-.71,5.47-1.32l.04-.02.04-.02c.22-.09.44-.19.66-.28,1.25-.52,2.53-1.06,3.56-1.81.16-.06.33-.13.51-.2.97-.38,2.29-.9,3.73-1.54,1.65-.73,3.2-1.84,4.84-3.02.36-.26.74-.52,1.11-.79l.03-.02.03-.02c3.93-3.01,7.51-7.03,9.85-11.05,2.07-2.35,4.47-6.53,5.16-11.47,1.06-4.96.25-10.26-2.23-14.56-3.4-6.38-9.05-10.64-14.27-13.95-2.48-9.6-7.39-14.67-12.58-20.04-1.23-1.27-2.48-2.57-3.72-3.94.69-.98.9-2.04.62-3.19l-.05-.21-.1-.19c-.24-.47-.4-1.17-.4-1.73v-1.36l-1.28-.48c-.43-.16-.77-.29-1.04-.41.48-.33.92-.81,1.09-1.53.09-.41.15-1.16-.4-1.99-1.44-3.96-.56-9.16,2.32-13.66l.06-.09.05-.09c.97-1.94,2.84-4.13,5.11-5.99l.08-.06.07-.07c.64-.64,1.29-1.08,1.98-1.55.37-.25.75-.51,1.12-.79.15-.08.33-.18.52-.3.29-.17.62-.37,1-.56.37-.14.69-.33.95-.49.08-.05.18-.11.26-.15h.46l.52-.39c3.86-2.86,7.68-4.44,10.75-4.44,1.69,0,3.12.46,4.37,1.41l.98.74,1.1-.55c.68-.34,1.48-.62,2.24-.89.36-.13.7-.25,1.02-.37.54-.09,1.15-.17,1.77-.26.72-.1,1.44-.21,2.06-.31.76-.14,1.55-.21,2.39-.21.34,0,.67.01.96.03-.21,1.27-.22,2.73-.22,4.15l-.06.56c-.36,3.31-.81,7.43-2.52,10.68l-.98,1.86,1.92.85c3.45,1.54,4.45,2.92,5.7,4.67,1.15,1.6,2.45,3.41,5.54,5.27l1.56.93,1.06-1.48c1.45-2.03,3.47-3.62,5.42-5.17,1.83-1.45,3.73-2.95,5.18-4.82l.02-.02.02-.03c3.56-4.89,5.95-11.54,6.58-18.27.11-.43.17-.89.22-1.33.04-.35.08-.71.15-.97l.06-.24v-3.23c-.05-.47-.08-.92-.12-1.35-.12-1.63-.24-3.17-.76-4.65-.82-3.67-1.87-6.59-2.87-9.2l-.13-.33-.24-.27c-1.66-1.87-3.96-3.62-6.31-4.82-.28-.19-.53-.36-.77-.52-.71-.48-1.33-.91-1.97-1.24-.23-.18-.46-.35-.67-.5-.4-.29-.77-.56-.85-.73l-.45-.9-.99-.16c-3.56-.59-6.74-.88-9.72-.88h0Z" style="fill:#fff;"/></svg>